<?xml version="1.0" encoding="UTF-8"?>
<svg version="1.1" xmlns="http://www.w3.org/2000/svg" width="2896" height="819">
<path d="M0 0 C52.47 0 104.94 0 159 0 C174.92190819 27.29469975 174.92190819 27.29469975 180.625 37.6875 C186.44918687 48.23077936 192.36792461 58.71356078 198.36767578 69.15771484 C201.54220846 74.68537106 204.70968568 80.21706174 207.875 85.75 C208.21455719 86.34332123 208.55411438 86.93664246 208.90396118 87.54794312 C214.27976368 96.94471513 219.57755714 106.38301414 224.84667969 115.84008789 C228.85278332 123.00809489 232.96391898 130.10851806 237.125 137.1875 C242.11844928 145.68591333 246.92326492 154.26539487 251.61083984 162.93579102 C257.50495058 173.82165359 263.70033006 184.53179889 269.87646484 195.25927734 C277.50185225 208.5138676 285.03782653 221.79930022 292.27709961 235.27050781 C297.50051327 244.97563464 302.92466772 254.56208878 308.375 264.14111328 C311.09257557 268.92218449 313.79552826 273.71150849 316.5 278.5 C317.58326362 280.41670607 318.66659694 282.33337274 319.75 284.25 C339.25 318.75 339.25 318.75 340.8762207 321.62719727 C341.95544209 323.53656398 343.03470615 325.44590658 344.11401367 327.35522461 C346.88561703 332.25837974 349.65639162 337.16200038 352.42578125 342.06640625 C352.99296875 343.07058594 353.56015625 344.07476562 354.14453125 345.109375 C355.2086167 346.99332956 356.27244552 348.87742911 357.3359375 350.76171875 C361.53181832 358.18941378 365.76731245 365.59279679 370 373 C370.33 249.91 370.66 126.82 371 0 C412.25 0 453.5 0 496 0 C496 197.67 496 395.34 496 599 C448.81 599 401.62 599 353 599 C339.24632353 574.93106618 339.24632353 574.93106618 333.6875 564.875 C332.73536577 563.15701867 331.78322911 561.43903868 330.83096313 559.72113037 C329.86134507 557.9715408 328.89234057 556.22161124 327.92333984 554.47167969 C324.78754994 548.81149532 321.6434248 543.15594663 318.5 537.5 C317.24995852 535.25002304 315.99995856 533.00002302 314.75 530.75 C314.13125 529.63625 313.5125 528.5225 312.875 527.375 C292.25 490.25 292.25 490.25 290.37475586 486.87451172 C289.12562495 484.62610861 287.87643881 482.37773618 286.62719727 480.12939453 C283.48844509 474.4802133 280.35067557 468.8304904 277.21484375 463.1796875 C271.16255271 452.27555983 265.09895694 441.37810578 259 430.5 C252.26472928 418.48696432 245.57383214 406.4495583 238.89111328 394.40722656 C235.76254948 388.77048032 232.63113923 383.1353159 229.5 377.5 C228.24998618 375.25000768 226.99998618 373.00000768 225.75 370.75 C225.13125 369.63625 224.5125 368.5225 223.875 367.375 C218.25 357.25 218.25 357.25 216.37475586 353.87451172 C215.12562495 351.62610861 213.87643881 349.37773618 212.62719727 347.12939453 C209.48844509 341.4802133 206.35067557 335.8304904 203.21484375 330.1796875 C197.16255271 319.27555983 191.09895694 308.37810578 185 297.5 C178.26472928 285.48696432 171.57383214 273.4495583 164.89111328 261.40722656 C161.14413134 254.65627382 157.39368735 247.90724316 153.64282227 241.15844727 C150.75319525 235.95863451 147.86500294 230.75804544 144.98303223 225.5539856 C143.6443928 223.13701564 142.30477368 220.72058932 140.96508789 218.30419922 C140.03762771 216.63040693 139.11155778 214.95584453 138.18554688 213.28125 C137.60869141 212.24097656 137.03183594 211.20070312 136.4375 210.12890625 C135.94121094 209.23244385 135.44492188 208.33598145 134.93359375 207.41235352 C132.00611764 202.24602352 128.99203868 197.12920916 126 192 C125.67 326.31 125.34 460.62 125 599 C83.75 599 42.5 599 0 599 C0 401.33 0 203.66 0 0 Z " fill="#028852" transform="translate(1130,0)"/>
<path d="M0 0 C44.22 0 88.44 0 134 0 C134.33 85.47 134.66 170.94 135 259 C138.96 253.06 142.92 247.12 147 241 C150.17526806 236.36483858 153.35419543 231.73322965 156.54638672 227.10986328 C159.20781097 223.24690924 161.85293259 219.37279923 164.5 215.5 C168.93563726 209.01283982 173.38103294 202.532534 177.8359375 196.05859375 C181.39930599 190.87832106 184.95103702 185.69015008 188.5 180.5 C192.93577763 174.01293554 197.38103266 167.53253441 201.8359375 161.05859375 C205.39930599 155.87832106 208.95103702 150.69015008 212.5 145.5 C216.93577763 139.01293554 221.38103266 132.53253441 225.8359375 126.05859375 C229.39930599 120.87832106 232.95103702 115.69015008 236.5 110.5 C240.93577763 104.01293554 245.38103266 97.53253441 249.8359375 91.05859375 C253.39930599 85.87832106 256.95103702 80.69015008 260.5 75.5 C264.93577763 69.01293554 269.38103266 62.53253441 273.8359375 56.05859375 C277.95417092 50.07168216 282.05686762 44.07419219 286.1574707 38.07519531 C288.73811285 34.30103972 291.32189172 30.52918434 293.91796875 26.765625 C294.38589844 26.08693359 294.85382813 25.40824219 295.3359375 24.70898438 C296.1799705 23.4856244 297.02487567 22.26286516 297.87109375 21.04101562 C298.268125 20.46544922 298.66515625 19.88988281 299.07421875 19.296875 C299.49611544 18.70994905 299.91801212 18.12302309 300.35269356 17.5183115 C301.68254831 15.48530268 302.78653919 13.51118463 303.8943615 11.35900021 C309.55723813 0.93290901 309.55723813 0.93290901 315.57896805 -1.36683464 C319.94352264 -1.84802954 324.08761024 -1.86149204 328.46533203 -1.70288086 C330.11210236 -1.69864309 331.75890097 -1.70103785 333.40565491 -1.70951843 C337.8516553 -1.71380257 342.29151823 -1.6259891 346.73609781 -1.52090907 C351.38956998 -1.42678019 356.04320199 -1.41830097 360.69747925 -1.40052795 C369.49936377 -1.35400698 378.29843513 -1.23106668 387.09908378 -1.08028561 C397.12290986 -0.91229688 407.14687436 -0.83007121 417.17175889 -0.75485408 C437.78273952 -0.59829734 458.39119218 -0.33466912 479 0 C477.37144222 4.34755315 475.16578305 7.61301387 472.25 11.1875 C471.25067455 12.43569576 470.25200844 13.68441961 469.25390625 14.93359375 C468.7242627 15.59343262 468.19461914 16.25327148 467.64892578 16.93310547 C464.79390489 20.51181539 461.9930662 24.13248193 459.1875 27.75 C457.99359458 29.28653992 456.79958315 30.82299748 455.60546875 32.359375 C455.00911621 33.12701172 454.41276367 33.89464844 453.79833984 34.68554688 C450.86700637 38.45815634 447.93340802 42.22900355 445 46 C443.83332206 47.49999123 442.6666554 48.99999124 441.5 50.5 C406.5 95.5 406.5 95.5 404.74902344 97.7512207 C403.58556688 99.24711662 402.42215522 100.74304745 401.25878906 102.23901367 C398.29338002 106.05209776 395.32712738 109.86452064 392.359375 113.67578125 C387.22405297 120.27201386 382.0912807 126.86968837 377 133.5 C371.30530446 140.91613129 365.55912408 148.29198584 359.81445312 155.66943359 C356.87486662 159.44517266 353.93752285 163.22265535 351 167 C349.83334461 168.50000877 348.66667793 170.00000876 347.5 171.5 C346.9225 172.2425 346.345 172.985 345.75 173.75 C312.5 216.5 312.5 216.5 310.74780273 218.75268555 C309.58827977 220.24359335 308.42893552 221.73464016 307.26977539 223.22583008 C304.24530671 227.1161354 301.21720739 231.00353911 298.18359375 234.88671875 C297.55646484 235.69044922 296.92933594 236.49417969 296.28320312 237.32226562 C295.09165457 238.84921303 293.8990238 240.37531684 292.70507812 241.90039062 C289.35715328 246.19351845 286.133506 250.54773728 283 255 C286.30146849 261.89949252 289.97516736 268.41411789 294.0625 274.875 C295.22639862 276.73496532 296.38913334 278.59565941 297.55078125 280.45703125 C298.13166504 281.38725098 298.71254883 282.3174707 299.31103516 283.27587891 C301.83425392 287.34556305 304.29611862 291.45075036 306.75 295.5625 C311.52967967 303.56170277 316.34837093 311.53665698 321.1875 319.5 C321.54662476 320.09104523 321.90574951 320.68209045 322.27575684 321.29104614 C324.11500971 324.31791476 325.95462816 327.34456096 327.79443359 330.37109375 C331.01259345 335.66545717 334.22747493 340.96181075 337.4425354 346.25805664 C339.21154945 349.17212325 340.98078624 352.08605463 342.75 355 C343.4583344 356.16666602 344.16666773 357.33333269 344.875 358.5 C345.225625 359.0775 345.57625 359.655 345.9375 360.25 C381 418 416.0625 475.75 451.125 533.5 C451.47557465 534.0774144 451.82614929 534.6548288 452.18734741 535.2497406 C452.89619893 536.41726613 453.60504088 537.58479747 454.31387329 538.75233459 C456.07670035 541.65590817 457.83968958 544.55938303 459.60302734 547.46264648 C462.88601592 552.86833492 466.16744753 558.27494927 469.44329834 563.68496704 C470.96963727 566.20547325 472.49687228 568.72543596 474.02416992 571.24536133 C474.74320194 572.43226647 475.46180805 573.61942977 476.17993164 574.80688477 C480.26461243 581.56085921 484.41220831 588.25542995 488.74560547 594.85327148 C490 597 490 597 490 599 C469.44249233 599.39760045 448.88562064 599.69712814 428.32504463 599.88080692 C418.7775615 599.96837188 409.23247056 600.08767569 399.68652344 600.2824707 C391.3633742 600.45223189 383.04195716 600.56165866 374.71712482 600.59950441 C370.31038493 600.62162332 365.90859872 600.67333965 361.5034523 600.79741096 C334.71104476 601.52338698 334.71104476 601.52338698 328.57820511 597.35326004 C324.95070165 593.44099176 323.10763443 589.16313234 321.65344906 584.0829277 C320.67059035 580.94997708 319.08841405 578.40841349 317.3828125 575.609375 C316.29522805 573.65716661 315.20929427 571.70403773 314.125 569.75 C309.76864536 561.93528776 305.38677793 554.1372082 300.9375 546.375 C296.84967536 539.24326627 292.78836001 532.09736318 288.75 524.9375 C284.22228377 516.91103176 279.66247048 508.90344897 275.08276367 500.90655518 C269.00021388 490.28538111 262.97668152 479.63327785 257.01025391 468.94628906 C252.87050536 461.5370733 248.6794352 454.15889816 244.45898438 446.79541016 C240.86520875 440.52291869 237.3014296 434.23405354 233.75 427.9375 C228.55000393 418.71925372 223.30271002 409.52858563 218.04275513 400.34448242 C213.20950583 391.9021812 208.42842622 383.43206948 203.6875 374.9375 C201.46106867 370.95679597 199.2317742 366.9777109 197 363 C196.45875488 362.03449219 195.91750977 361.06898438 195.35986328 360.07421875 C193.83170281 357.35707601 192.29285996 354.6463165 190.75 351.9375 C190.29584717 351.12724365 189.84169434 350.3169873 189.3737793 349.48217773 C188.30634674 347.62081774 187.16128726 345.80429631 186 344 C185.34 344 184.68 344 184 344 C182.04712589 346.08506867 180.2022736 348.1838428 178.375 350.375 C177.83157959 351.01840332 177.28815918 351.66180664 176.72827148 352.32470703 C173.14834921 356.57941519 169.63653112 360.88450648 166.1875 365.24609375 C163.33927497 368.83180562 160.45169956 372.38477198 157.5625 375.9375 C156.72029907 376.9737854 156.72029907 376.9737854 155.86108398 378.03100586 C151.98846847 382.79300971 148.10055298 387.54204203 144.1953125 392.27734375 C143.47085938 393.17582031 142.74640625 394.07429688 142 395 C141.43422462 395.5179032 140.86844923 396.03580641 140.28552914 396.56940365 C132.97851145 404.07519961 134.0238776 413.15369452 134.11352539 422.92211914 C134.10562985 424.84461909 134.0946642 426.76710851 134.08087158 428.6895752 C134.05221518 433.88959084 134.06634569 439.08870337 134.08831334 444.28871846 C134.10397284 449.73001909 134.08006885 455.17114451 134.06040955 460.6124115 C134.02919961 470.90763773 134.03343306 481.20253031 134.05048412 491.4977774 C134.07147913 505.41573548 134.03755391 519.33355354 134.00674725 533.25147533 C133.95968078 555.16780621 133.98584592 577.08342515 134 599 C89.78 599 45.56 599 0 599 C0 401.33 0 203.66 0 0 Z " fill="#283077" transform="translate(565,0)"/>
<path d="M0 0 C45.21 0 90.42 0 137 0 C137.02187378 16.41089355 137.02187378 16.41089355 137.04418945 33.15332031 C137.09305823 68.25186771 137.15649787 103.35037545 137.22898628 138.4488817 C137.24025299 143.91058237 137.25139168 149.37228329 137.26245117 154.83398438 C137.2657567 156.46481485 137.2657567 156.46481485 137.269129 158.12859139 C137.30439778 175.67922056 137.32932053 193.22984969 137.35034702 210.78050104 C137.37219244 228.82018233 137.40532486 246.85981807 137.44870156 264.89946055 C137.47506855 276.01007278 137.49287366 287.12062837 137.49934604 298.23127028 C137.50464609 305.87425158 137.52101533 313.51716191 137.54566566 321.16010502 C137.55952456 325.55438645 137.56891123 329.94854133 137.56500816 334.34284592 C137.53173618 381.50217145 140.77003944 432.60004577 173 470 C173.56976563 470.6703125 174.13953125 471.340625 174.7265625 472.03125 C191.21782027 489.90354906 216.08616177 497.60345269 239.68237305 498.87426758 C266.41341036 499.85085688 292.90423394 493.40915712 313 475 C313.7425 474.34902344 314.485 473.69804687 315.25 473.02734375 C344.13675509 446.19676393 350.91261556 401.38352165 353 364 C353.13824368 358.83251181 353.15485669 353.66658759 353.15821838 348.49758911 C353.16279674 346.98407771 353.16779858 345.47056754 353.17318195 343.95705879 C353.18662761 339.83851951 353.1941415 335.71998838 353.20060861 331.60143304 C353.20867299 327.14491348 353.2223496 322.68841056 353.23532104 318.23190308 C353.25699886 310.52409517 353.27517477 302.8162855 353.29092598 295.10846329 C353.31370431 283.96444713 353.34183577 272.82044945 353.37124526 261.67644905 C353.41882399 243.59306407 353.46211428 225.50967149 353.50268555 207.42626953 C353.54209008 189.86701874 353.58352807 172.30777467 353.62768555 154.74853516 C353.63177196 153.12315276 353.63177196 153.12315276 353.63594092 151.46493436 C353.64962121 146.02852123 353.66334132 140.59210819 353.67708123 135.1556952 C353.79089319 90.10381004 353.89694202 45.0519113 354 0 C398.88 0 443.76 0 490 0 C490.04420002 44.44244047 490.08108613 88.88485999 490.10213066 133.3273162 C490.10463168 138.58987425 490.10722036 143.85243225 490.10986328 149.11499023 C490.11065021 150.68632332 490.11065021 150.68632332 490.11145304 152.28940051 C490.12012442 169.18813177 490.13587612 186.08684923 490.15430559 202.98557235 C490.17309604 220.36192186 490.18413592 237.73826423 490.18817699 255.11462349 C490.19090321 265.81219272 490.19947151 276.50972295 490.21583293 287.20728015 C490.2265131 294.57132217 490.22957608 301.93534442 490.22700275 309.2993936 C490.22573835 313.52999232 490.22749076 317.76052355 490.23841095 321.99110985 C490.41904909 395.82943229 481.71013178 476.17751823 431 534 C430.26136719 534.84820313 429.52273438 535.69640625 428.76171875 536.5703125 C426.54044986 539.07931052 424.28397562 541.54802617 422 544 C421.31550781 544.73863281 420.63101562 545.47726562 419.92578125 546.23828125 C388.89792908 578.5278945 345.21028459 595.88644764 302 604 C301.17886719 604.15452637 300.35773438 604.30905273 299.51171875 604.46826172 C232.3168865 616.6892531 152.69809097 610.26997986 95 571 C87.15614128 565.56946294 79.90684696 559.57375079 73 553 C72.43909668 552.47164551 71.87819336 551.94329102 71.30029297 551.39892578 C22.02846704 504.72242349 4.85479843 435.13987968 0.93215942 369.47769165 C0.88846097 368.7472635 0.84476251 368.01683534 0.79973985 367.264273 C-0.17037769 350.63377432 -0.27554308 334.03313071 -0.23213124 317.37917948 C-0.22328493 313.09616598 -0.22643143 308.8131562 -0.22793579 304.53013611 C-0.22897162 297.15387874 -0.22283381 289.77765745 -0.21146011 282.40140915 C-0.19502772 271.73732061 -0.18997925 261.07324906 -0.18748413 250.40914924 C-0.18313442 233.09664957 -0.16990033 215.78416901 -0.15087891 198.47167969 C-0.13244884 181.67968846 -0.11832748 164.88770246 -0.10986328 148.09570312 C-0.10933783 147.05620028 -0.10881239 146.01669743 -0.10827102 144.94569449 C-0.10566046 139.72948708 -0.10313316 134.51327964 -0.10064721 129.29707217 C-0.07999978 86.19803112 -0.04317674 43.09902553 0 0 Z " fill="#283077" transform="translate(0,0)"/>
<path d="M0 0 C59.07 0 118.14 0 179 0 C196.82534115 57.3510976 214.64390316 114.70413487 232.41629028 172.07162476 C238.60541257 192.04944346 244.79909812 212.02583363 251 232 C257.91043307 254.25968777 264.81103719 276.52240781 271.70825195 298.78619385 C278.13332631 319.52584184 284.5626399 340.26416123 291 361 C297.91043307 383.25968777 304.81103719 405.52240781 311.70825195 427.78619385 C317.77408396 447.36623505 323.84303489 466.94529684 329.92041016 486.52175903 C330.99291989 489.97718918 332.06490283 493.43278232 333.13671875 496.88842773 C336.63140165 508.15446994 340.12945748 519.41943419 343.6375885 530.68129539 C345.67622792 537.22612778 347.71233897 543.77174377 349.74693298 550.31783485 C350.98868169 554.31251673 352.23175237 558.30677653 353.47802734 562.30004883 C354.64586299 566.04201037 355.81027674 569.78502002 356.97219849 573.52882195 C357.40082497 574.90772769 357.83069663 576.28624711 358.26193237 577.66433907 C358.85770035 579.56886968 359.44847327 581.47496062 360.0390625 583.38110352 C360.37115723 584.4474855 360.70325195 585.51386749 361.04541016 586.61256409 C362.19681181 590.69840193 363.07913604 594.85611219 364 599 C315.49 599 266.98 599 217 599 C206.68017578 564.60058594 206.68017578 564.60058594 196.36035156 530.20117188 C195.69332214 527.97798218 195.02629272 525.75479248 194.33905029 523.4642334 C192.97347447 518.91244335 191.60875179 514.36039835 190.2444458 509.80822754 C187.22156953 499.72393552 184.19744125 489.64010892 181.14610672 479.56438446 C180.00042402 475.7811434 178.85739351 471.99710331 177.71446991 468.21302795 C176.94220083 465.6609205 176.16553231 463.11017968 175.38873291 460.55944824 C174.93176921 459.04686539 174.47502807 457.53421527 174.01855469 456.02148438 C173.81089729 455.34477692 173.6032399 454.66806946 173.38928986 453.97085571 C172.55491499 451.19062655 172 448.92349409 172 446 C115.57 446 59.14 446 1 446 C0.34 449.3 -0.32 452.6 -1 456 C-1.80757093 459.13250697 -2.63807816 462.2447872 -3.51513672 465.35717773 C-3.88168114 466.67490677 -3.88168114 466.67490677 -4.25563049 468.01925659 C-5.06019569 470.90834488 -5.86991444 473.79596125 -6.6796875 476.68359375 C-7.25374641 478.74096449 -7.82748021 480.79842596 -8.40090942 482.85597229 C-9.91539443 488.28680369 -11.43424379 493.716405 -12.95404053 499.14575195 C-14.45370839 504.50595392 -15.94937448 509.86727178 -17.4453125 515.22851562 C-19.7993252 523.66327893 -22.15602695 532.0972861 -24.51464844 540.53076172 C-26.85549995 548.90099593 -29.19185619 557.2724704 -31.52441406 565.64501953 C-32.08561641 567.65877947 -32.64682438 569.67253785 -33.20803833 571.68629456 C-34.007386 574.55461858 -34.80649595 577.42300761 -35.60479355 580.29162407 C-36.32717924 582.88738969 -37.05046124 585.48290403 -37.77392578 588.07836914 C-37.98636555 588.84278635 -38.19880531 589.60720356 -38.41768265 590.39478493 C-39.22423247 593.28579626 -40.05067921 596.15203763 -41 599 C-87.53 599 -134.06 599 -182 599 C-181.2581319 593.80692333 -180.30511233 589.21473694 -178.75708008 584.26977539 C-178.52844174 583.52450592 -178.29980341 582.77923645 -178.06423664 582.01138306 C-177.30428057 579.53858716 -176.53690023 577.06816081 -175.76953125 574.59765625 C-175.22566702 572.83294664 -174.68229261 571.06808602 -174.13937378 569.30308533 C-172.97736766 565.52884414 -171.81215445 561.75561426 -170.64437866 557.9831543 C-168.79320835 552.00276101 -166.94926478 546.02015556 -165.10668945 540.03710938 C-163.22358145 533.92340379 -161.34015998 527.80979667 -159.45433044 521.69692993 C-154.05688617 504.20030827 -148.69666937 486.69248952 -143.35265732 469.17948532 C-142.23601024 465.52062771 -141.11860119 461.86200283 -140.0012207 458.20336914 C-138.44495887 453.10755129 -136.88886069 448.01168355 -135.33303547 442.91573238 C-132.3965316 433.29758151 -129.45836738 423.67993848 -126.51953125 414.0625 C-126.29207403 413.3181369 -126.06461681 412.5737738 -125.83026695 411.80685425 C-124.6802091 408.04326802 -123.53012754 404.27968903 -122.3800354 400.51611328 C-120.31561785 393.76044749 -118.2514097 387.00471772 -116.18718529 380.24899292 C-115.04146539 376.49932601 -113.89573201 372.74966321 -112.75 369 C-112.2916666 367.50000002 -111.83333327 366.00000002 -111.375 364.5 C-88.6875 290.25 -66 216 0 0 Z M84 102 C80.66547666 113.13946308 77.92326449 124.39484325 75.36328125 135.734375 C75.2008984 136.45271011 75.03851555 137.17104523 74.87121201 137.91114807 C73.34321892 144.6769243 71.82685026 151.44529349 70.31567383 158.21484375 C61.87821823 195.9738572 51.64896474 233.18266538 41.13232422 270.40905762 C39.75716944 275.27922683 38.38555289 280.15039217 37.01367188 285.02148438 C34.92979638 292.4189509 32.84553281 299.81630785 30.76025391 307.21337891 C30.52194414 308.05879808 30.28363438 308.90421726 30.0381031 309.7752552 C28.76686593 314.28396947 27.49337969 318.79203663 26.21698856 323.29929447 C25.38637157 326.2341843 24.55870166 329.16990539 23.73046875 332.10546875 C23.30040276 333.61793938 23.30040276 333.61793938 22.86164856 335.16096497 C22.6097728 336.05554916 22.35789703 336.95013336 22.09838867 337.87182617 C21.776045 339.01007088 21.776045 339.01007088 21.44718933 340.17131042 C20.92081951 342.01003018 20.92081951 342.01003018 21 344 C64.23 344 107.46 344 152 344 C144.40895845 317.34948338 144.40895845 317.34948338 136.64901924 290.74983978 C135.89163445 288.19123546 135.13653048 285.63196539 134.38182068 283.0725708 C132.24459054 275.82602998 130.10376599 268.58055299 127.96166992 261.33544922 C117.7556626 226.80860879 107.69887202 192.25250405 98.75 157.375 C98.15424405 155.06621512 97.55837655 152.75745902 96.96240234 150.44873047 C92.81304832 134.33774332 88.77366986 118.20355108 85 102 C84.67 102 84.34 102 84 102 Z " fill="#028852" transform="translate(2095,0)"/>
<path d="M0 0 C120.78 0 241.56 0 366 0 C366 36.96 366 73.92 366 112 C290.43 112 214.86 112 137 112 C137 156.88 137 201.76 137 248 C207.62 248 278.24 248 351 248 C351 284.63 351 321.26 351 359 C280.38 359 209.76 359 137 359 C137 438.2 137 517.4 137 599 C91.79 599 46.58 599 0 599 C0 401.33 0 203.66 0 0 Z " fill="#028852" transform="translate(2530,0)"/>
<path d="M0 0 C0.66 0 1.32 0 2 0 C2 150.15 2 300.3 2 455 C-43.21 455 -88.42 455 -135 455 C-135 324.32 -135 193.64 -135 59 C-117.675 54.05 -117.675 54.05 -100 49 C-77.53946496 41.64927944 -55.89119656 33.06065075 -35 22 C-34.28537598 21.62407715 -33.57075195 21.2481543 -32.83447266 20.86083984 C-15.36212886 11.95505217 -15.36212886 11.95505217 0 0 Z " fill="#028852" transform="translate(1836,144)"/>
<path d="M0 0 C45.21 0 90.42 0 137 0 C137.20625 14.870625 137.4125 29.74125 137.625 45.0625 C137.71604004 49.74961182 137.80708008 54.43672363 137.90087891 59.26586914 C137.94604492 65.01062012 137.94604492 65.01062012 137.95443726 67.7040863 C137.96974657 69.57652069 138.00482497 71.44885925 138.05575562 73.32066345 C138.46438952 89.13594648 138.46438952 89.13594648 134.84783936 93.73953247 C132.28350441 95.56431729 129.90088289 96.8026006 127 98 C125.65369159 98.80685963 124.31734065 99.63103896 123 100.484375 C97.28461351 115.31190088 69.25902318 124.51781621 40.5 131.3125 C39.80132813 131.47785248 39.10265625 131.64320496 38.3828125 131.81356812 C30.59298719 133.64217908 22.77812833 135.29366918 14.90625 136.73046875 C14.21785034 136.85940018 13.52945068 136.9883316 12.82019043 137.12117004 C8.37649872 137.90455838 4.61315113 138 0 138 C0 92.46 0 46.92 0 0 Z " fill="#DF1E35" transform="translate(1701,0)"/>
<path d="M0 0 C4.29 0 8.58 0 13 0 C16.14188658 3.48498441 17.87641779 5.97182371 20 10 C21.16892318 11.86050052 22.35014825 13.71332336 23.54296875 15.55859375 C24.76057027 17.51651684 25.97532856 19.47621045 27.1875 21.4375 C28.50337932 23.55761881 29.81979248 25.67740636 31.13671875 27.796875 C31.78560059 28.84166016 32.43448242 29.88644531 33.10302734 30.96289062 C34.85116329 33.76170802 36.61674919 36.54807161 38.39453125 39.328125 C38.92087158 40.15256104 39.44721191 40.97699707 39.98950195 41.82641602 C40.94925699 43.32662467 41.91226722 44.82475963 42.87963867 46.32006836 C46.97592265 52.73745546 50.35312539 59.22723286 54 66 C54 44.22 54 22.44 54 0 C57.63 0 61.26 0 65 0 C65 28.71 65 57.42 65 87 C61.04 87 57.08 87 53 87 C50.19634084 84.15949466 48.93044747 82.42681198 47.1875 79 C46.1970878 77.25419999 45.20480833 75.50945836 44.2109375 73.765625 C43.69756836 72.83169922 43.18419922 71.89777344 42.65527344 70.93554688 C39.7339108 65.75465243 36.49859055 60.77066268 33.3125 55.75 C25.93977145 43.97205917 18.74977121 32.14958817 12 20 C12 42.11 12 64.22 12 87 C8.04 87 4.08 87 0 87 C0 58.29 0 29.58 0 0 Z " fill="#283077" transform="translate(898,704)"/>
<path d="M0 0 C2.44203503 1.74993754 4.09754371 3.68504316 5.6953125 6.21484375 C5.6953125 6.87484375 5.6953125 7.53484375 5.6953125 8.21484375 C6.3553125 8.21484375 7.0153125 8.21484375 7.6953125 8.21484375 C8.07042969 7.32345703 8.07042969 7.32345703 8.453125 6.4140625 C9.86597403 3.91269771 11.26442374 2.71977909 13.5703125 1.02734375 C14.24835937 0.51816406 14.92640625 0.00898437 15.625 -0.515625 C20.49525552 -3.50210244 26.14935374 -3.36146823 31.6953125 -2.78515625 C37.49158387 -1.18301786 40.91801353 2.1031278 44.46875 6.82421875 C47.88681285 13.48617564 47.97256977 20.30858263 47.890625 27.62109375 C47.8877951 28.58640015 47.88496521 29.55170654 47.88204956 30.54626465 C47.87093374 33.60258853 47.84584535 36.65860976 47.8203125 39.71484375 C47.81027158 41.79817282 47.80114768 43.88150653 47.79296875 45.96484375 C47.77102261 51.04829212 47.73655267 56.13151678 47.6953125 61.21484375 C43.7353125 61.21484375 39.7753125 61.21484375 35.6953125 61.21484375 C35.68072998 59.97919678 35.66614746 58.7435498 35.65112305 57.47045898 C35.59294054 52.86502847 35.51570905 48.26007669 35.43286133 43.6550293 C35.39970566 41.66585081 35.37164485 39.67658036 35.34887695 37.68725586 C35.3151585 34.81975291 35.26283427 31.95308558 35.20703125 29.0859375 C35.20064133 28.20336777 35.1942514 27.32079803 35.18766785 26.41148376 C35.04056626 20.16642068 33.89096006 15.68165569 30.5078125 10.33984375 C27.44385894 8.43807947 24.22147084 8.12116971 20.6953125 8.21484375 C15.95726451 9.67270467 13.88782343 11.77646311 11.5291748 16.10281372 C9.96383374 20.06755385 10.09166185 24.09079287 10.0859375 28.3046875 C10.06940125 29.2492128 10.05286499 30.1937381 10.03582764 31.16688538 C9.98752539 34.16210549 9.96601612 37.15681854 9.9453125 40.15234375 C9.91713797 42.19208256 9.88720848 44.23179793 9.85546875 46.27148438 C9.78177109 51.2525624 9.7320879 56.23336185 9.6953125 61.21484375 C5.7353125 61.21484375 1.7753125 61.21484375 -2.3046875 61.21484375 C-2.31927002 60.01472656 -2.33385254 58.81460938 -2.34887695 57.578125 C-2.40713768 53.0975259 -2.48436783 48.61741482 -2.56713867 44.13720703 C-2.60025787 42.20336873 -2.62832974 40.26943679 -2.65112305 38.33544922 C-2.68490935 35.54484396 -2.7372358 32.75508684 -2.79296875 29.96484375 C-2.79935867 29.10930908 -2.8057486 28.25377441 -2.81233215 27.37231445 C-2.95873314 21.30563025 -3.67098483 15.41784888 -7.67378235 10.54980469 C-10.51445678 8.22459933 -13.77086694 8.02645993 -17.3046875 8.21484375 C-21.19624441 9.64174795 -23.29574043 10.58928724 -25.47564697 14.10142517 C-28.08327232 19.80855755 -28.90480582 24.60174881 -28.9140625 30.84375 C-28.93886688 32.1564109 -28.93886688 32.1564109 -28.96417236 33.49559021 C-29.01226999 36.25624881 -29.03393728 39.01635824 -29.0546875 41.77734375 C-29.08287928 43.66343853 -29.11281114 45.54950814 -29.14453125 47.43554688 C-29.21801805 52.02860052 -29.2678252 56.62135612 -29.3046875 61.21484375 C-33.2646875 61.21484375 -37.2246875 61.21484375 -41.3046875 61.21484375 C-41.3046875 40.42484375 -41.3046875 19.63484375 -41.3046875 -1.78515625 C-37.6746875 -1.78515625 -34.0446875 -1.78515625 -30.3046875 -1.78515625 C-29.9746875 0.52484375 -29.6446875 2.83484375 -29.3046875 5.21484375 C-28.86898437 4.80492187 -28.43328125 4.395 -27.984375 3.97265625 C-19.85307447 -3.38423471 -9.89773392 -5.63008751 0 0 Z " fill="#283077" transform="translate(806.3046875,729.78515625)"/>
<path d="M0 0 C3 2.1875 3 2.1875 5 4 C5.33 2.02 5.66 0.04 6 -2 C9.63 -2 13.26 -2 17 -2 C16.9616992 6.12035076 16.90199016 14.24015996 16.81609726 22.36013317 C16.7768472 26.13195032 16.74455025 29.90354187 16.72900391 33.67553711 C16.71368698 37.32630737 16.67898291 40.97645642 16.63169098 44.6269474 C16.61703003 46.00889958 16.60896793 47.39094052 16.60811615 48.7729702 C16.59573093 58.80642725 15.96042529 70.0340661 9.875 78.5 C0.32912108 86.80076428 -9.82973339 87.56945567 -21.93115234 87.15380859 C-26.93910709 86.78149192 -31.53591865 85.23204068 -36 83 C-35.54177532 79.53058454 -35.10868317 76.32604951 -34 73 C-31.30141614 73.47622068 -28.85751361 74.05330426 -26.28515625 75.015625 C-19.56970464 77.02786496 -10.30755476 77.65471085 -3.8125 74.5625 C0.643555 70.50253878 2.72679457 66.22024109 3.23828125 60.19140625 C3.24854827 57.77865568 3.18077682 55.40533606 3 53 C2.195625 53.8971875 2.195625 53.8971875 1.375 54.8125 C-3.50793737 59.30994232 -8.29144596 60.56206095 -14.8125 60.5 C-15.87090088 60.49033203 -15.87090088 60.49033203 -16.95068359 60.48046875 C-24.16506001 60.22832223 -28.83627719 58.34570687 -33.765625 53.1328125 C-40.15172946 45.16568218 -42.94193843 36.24143964 -42 26 C-40.26251184 15.84869125 -37.09502608 7.74462273 -28.87109375 1.25390625 C-20.23101827 -4.53620696 -9.16737221 -4.957018 0 0 Z M-23 11 C-29.30337006 19.1159972 -29.7391809 27.01585239 -29 37 C-27.41547676 43.00307949 -23.98626038 46.49900867 -19 50 C-14.64749493 51.45083502 -10.41886245 51.85342929 -6.0625 50.31640625 C-0.77063111 47.56782779 2.10694028 43.67917916 4 38 C4.25105336 34.90025179 4.23122942 31.79637729 4.25 28.6875 C4.270625 27.84509766 4.29125 27.00269531 4.3125 26.13476562 C4.34934808 20.24367953 3.65572154 15.84493326 -0.53515625 11.35546875 C-7.66305471 5.90472287 -15.81639391 4.54905025 -23 11 Z " fill="#283077" transform="translate(591,730)"/>
<path d="M0 0 C1.90374254 1.55634427 3.38199241 3.12917873 5 5 C5.33 2.69 5.66 0.38 6 -2 C9.63 -2 13.26 -2 17 -2 C16.93852066 6.43285439 16.86122473 14.86535846 16.76428509 23.29787254 C16.71974679 27.21434812 16.68045543 31.13072363 16.65356445 35.04736328 C16.62736485 38.83419095 16.58684815 42.62063006 16.53681374 46.40721512 C16.52025667 47.84468338 16.50867345 49.28221867 16.50238609 50.71976852 C16.44860616 61.89595182 15.99984276 71.89987385 7.96484375 80.30859375 C-1.06764415 88.08407538 -12.70086934 87.77406033 -24 87 C-27.52780902 86.42609805 -30.89587142 85.82036425 -34 84 C-35.33984375 82.125 -35.33984375 82.125 -36 80 C-34.625 76.25 -34.625 76.25 -33 73 C-32.45214844 73.2165625 -31.90429688 73.433125 -31.33984375 73.65625 C-23.17340677 76.52446201 -14.10257246 77.59590299 -5.625 75.37890625 C-1.59202337 73.42326025 0.53517924 70.33606915 2.2890625 66.37109375 C3.59959378 62.00025589 3.83308229 57.54016164 4 53 C3.18595703 53.63228516 3.18595703 53.63228516 2.35546875 54.27734375 C1.64003906 54.82519531 0.92460938 55.37304688 0.1875 55.9375 C-0.52019531 56.48277344 -1.22789063 57.02804687 -1.95703125 57.58984375 C-7.66536812 61.53001509 -15.36641995 60.47184461 -22 60 C-29.12694394 58.34152877 -33.89734476 52.7814429 -38 47 C-42.74058218 38.92991193 -42.3339305 26.86326513 -40.30859375 17.9609375 C-39.38825411 15.4733249 -38.33969753 13.28708488 -37 11 C-36.57589844 10.27296875 -36.15179687 9.5459375 -35.71484375 8.796875 C-31.849452 2.98263671 -26.6896588 -0.54490824 -20.0234375 -2.61328125 C-13.12573335 -3.93156834 -6.17121537 -3.50295152 0 0 Z M-25.3125 13.8125 C-29.32047966 21.38312824 -30.43657166 29.45560993 -28.27734375 37.7890625 C-26.01820609 43.99025819 -23.52123901 47.14671631 -17.625 50.25 C-13.03748328 51.56071906 -9.36663521 51.49198868 -4.875 49.875 C-0.93707682 47.30678923 1.87112583 44.25774835 4 40 C4.32159751 36.4656841 4.32452325 32.92213918 4.375 29.375 C4.41238281 28.40175781 4.44976563 27.42851563 4.48828125 26.42578125 C4.56966446 19.70714509 3.48163038 15.13368084 -1 10 C-9.30178826 3.96233581 -19.03791437 6.18124721 -25.3125 13.8125 Z " fill="#283077" transform="translate(1049,730)"/>
<path d="M0 0 C3.96 0 7.92 0 12 0 C12 30.03 12 60.06 12 91 C8.37 91 4.74 91 1 91 C0.505 87.04 0.505 87.04 0 83 C-0.721875 83.763125 -1.44375 84.52625 -2.1875 85.3125 C-8.63338057 91.47189699 -14.22516525 92.39214522 -22.90234375 92.265625 C-30.00574836 91.65650582 -34.51214919 88.86925568 -39.375 83.75 C-46.33702541 75.32082808 -47.61364822 65.65810074 -47 55 C-45.86445292 45.33162768 -41.69719425 37.55536981 -34.09375 31.44140625 C-27.5754701 26.95400833 -20.81743942 25.97985188 -13 27 C-8.0368913 28.52251756 -4.68437833 30.31562167 -1 34 C-0.67 22.78 -0.34 11.56 0 0 Z M-28 41 C-34.34758305 49.17292429 -34.55457951 56.97571369 -34 67 C-33.0315694 72.81058358 -30.204134 76.26114654 -25.71875 79.87109375 C-21.78154867 82.45711917 -17.54682195 82.466784 -13 82 C-8.06216078 80.25723322 -4.70160156 77.47548333 -2 73 C1.08550679 64.47812412 1.35362257 54.51378565 -1.875 45.9765625 C-4.18738367 41.91383286 -7.85808514 39.07095743 -12 37 C-18.1419841 36.23694291 -23.28503639 36.76591576 -28 41 Z " fill="#283077" transform="translate(328,700)"/>
<path d="M0 0 C3.96 0 7.92 0 12 0 C12 30.03 12 60.06 12 91 C8.37 91 4.74 91 1 91 C0.505 87.04 0.505 87.04 0 83 C-0.66 83.7425 -1.32 84.485 -2 85.25 C-7.18060364 90.30108855 -12.11918932 92.25519508 -19.375 92.5625 C-27.43027642 92.2824788 -33.78856172 89.6914949 -39.375 83.8125 C-45.78405718 75.38813022 -47.57789366 65.54357617 -46.78125 55.14453125 C-45.37253435 45.5408832 -41.80226667 37.50403184 -34.09375 31.40625 C-27.45549362 26.94771959 -20.90506405 26.14850838 -13 27 C-7.73456043 28.21307289 -4.91238213 30.08761787 -1 34 C-0.67 22.78 -0.34 11.56 0 0 Z M-29 42 C-34.22064053 49.75551802 -34.87047862 57.83552286 -34 67 C-32.14430817 72.92127392 -29.41819498 77.7205662 -24 81 C-19.01920617 82.66026461 -14.69726371 82.59903425 -9.8125 80.875 C-4.41888125 77.27925417 -1.65081072 73.19237443 0 67 C0.21103169 64.30592016 0.32521909 61.75131473 0.3125 59.0625 C0.32861328 58.38509766 0.34472656 57.70769531 0.36132812 57.00976562 C0.36749998 50.57252234 -1.20642798 46.06950618 -5.4375 41.1875 C-9.74234234 37.51263459 -13.01891357 36.47200829 -18.62109375 36.62890625 C-22.8350337 37.2862532 -25.91922484 39.08650675 -29 42 Z " fill="#283077" transform="translate(2168,700)"/>
<path d="M0 0 C3.96 0 7.92 0 12 0 C12.33 30.03 12.66 60.06 13 91 C9.37 91 5.74 91 2 91 C1.505 87.04 1.505 87.04 1 83 C0.49210938 83.48210937 -0.01578125 83.96421875 -0.5390625 84.4609375 C-7.50832454 90.85595323 -12.57633677 92.46024642 -22.0390625 92.23828125 C-29.59283882 91.6303916 -34.07884028 88.75798572 -39.23828125 83.25390625 C-45.95609936 74.65926977 -46.8136716 64.56610694 -46 54 C-44.19086811 44.35492936 -40.82954859 37.34764465 -32.91015625 31.44140625 C-26.41244684 27.17010007 -20.73031106 26.3383968 -13 27 C-8.3144259 28.15939973 -4.89116949 30.08162288 -1 33 C-0.67 22.11 -0.34 11.22 0 0 Z M-28.6875 42.4375 C-33.10488049 48.19867908 -34.38683582 56.14830209 -33.9375 63.25 C-32.98799574 69.54299103 -30.78624619 74.71595481 -25.9375 78.9375 C-21.47017472 82.07413264 -17.36134216 82.7095894 -12 82 C-7.18182934 80.21261411 -3.839004 77.258506 -1 73 C0.46833703 68.59498891 0.22493708 64.30221062 0.25 59.6875 C0.270625 58.74970703 0.29125 57.81191406 0.3125 56.84570312 C0.34727909 50.67676239 -0.13424236 46.06993376 -4.53515625 41.35546875 C-12.8097123 35.02786706 -20.75008782 35.23845175 -28.6875 42.4375 Z " fill="#283077" transform="translate(666,700)"/>
<path d="M0 0 C3.96 0 7.92 0 12 0 C12.33 12.87 12.66 25.74 13 39 C16.63 34.38 20.26 29.76 24 25 C29.625 18.375 29.625 18.375 32.3984375 15.19921875 C34.2042742 13.06738308 35.72632244 10.91420435 37.1640625 8.51953125 C39.25868596 5.17362523 40.98425759 2.55594311 44 0 C49.21231352 -0.99854753 53.72941027 -0.74996534 59 0 C57.58079656 4.46035368 55.13383107 7.32844314 51.9375 10.625 C47.42896855 15.40065971 43.20407662 20.32412831 39.08203125 25.44140625 C36.14942344 29.04526763 33.09075369 32.53159795 30 36 C31.60974187 40.73776302 34.20434022 44.52764015 37 48.625 C38.0679433 50.20947707 39.13563418 51.7941243 40.203125 53.37890625 C40.79673828 54.25691895 41.39035156 55.13493164 42.00195312 56.03955078 C45.52170966 61.25467391 49.02025264 66.48394538 52.51513672 71.71575928 C53.74364052 73.55298939 54.97523459 75.38812108 56.20703125 77.22314453 C56.9662818 78.35830751 57.72540249 79.49355735 58.484375 80.62890625 C59.16209961 81.64025635 59.83982422 82.65160645 60.53808594 83.69360352 C62 86 62 86 62 87 C56.84848428 88.25712664 52.00578781 89.00160982 47 87 C40.92758913 81.89018046 37.10066717 74.33882316 33.0625 67.625 C31.8830255 65.75999543 30.69882084 63.89797343 29.50976562 62.0390625 C27.36055664 58.64549382 25.2274514 55.24437884 23.14868164 51.80712891 C22.73203751 51.11873932 22.31539337 50.43034973 21.88612366 49.72109985 C21 48 21 48 21 46 C20.236875 46.763125 19.47375 47.52625 18.6875 48.3125 C16 51 16 51 14.36401367 52.19848633 C12.22393888 55.02497852 12.5191404 58.10050597 12.48828125 61.51171875 C12.47033005 62.23994339 12.45237885 62.96816803 12.43388367 63.71846008 C12.37975787 66.04141471 12.3458792 68.36416366 12.3125 70.6875 C12.27932875 72.26370051 12.24483927 73.83987388 12.20898438 75.41601562 C12.1240307 79.27719536 12.05723124 83.13831387 12 87 C8.04 87 4.08 87 0 87 C0 58.29 0 29.58 0 0 Z " fill="#283077" transform="translate(384,704)"/>
<path d="M0 0 C3.96 0 7.92 0 12 0 C12.01458252 1.77044678 12.02916504 3.54089355 12.04418945 5.36499023 C12.09604048 11.24441179 12.16137919 17.12360234 12.23571491 23.00277615 C12.2802562 26.5639204 12.31954678 30.12495454 12.34643555 33.6862793 C12.37765655 37.78983669 12.43243778 41.89279699 12.48828125 45.99609375 C12.49467117 47.26206894 12.5010611 48.52804413 12.50764465 49.8323822 C12.65494978 58.76680737 13.25893417 67.45153605 20 74 C25.08045328 77.50793202 30.02731772 77.80312729 36 77 C41.98376052 75.34536013 45.03533377 72.30138682 48.08984375 67 C49.91568309 62.98785519 50.14186835 59.33367376 50.20532227 54.94628906 C50.22526749 53.72532532 50.24521271 52.50436157 50.26576233 51.24639893 C50.28247482 49.93274353 50.29918732 48.61908813 50.31640625 47.265625 C50.33698919 45.90370064 50.35798601 44.54178248 50.37937927 43.17987061 C50.43446165 39.60265128 50.48393164 36.02537562 50.53222656 32.44805908 C50.58254289 28.79474906 50.63817597 25.14152042 50.69335938 21.48828125 C50.80077165 14.32558794 50.90176226 7.16282609 51 0 C55.29 0 59.58 0 64 0 C64.04984306 7.29165681 64.08592753 14.58321203 64.10986328 21.875 C64.11985332 24.3499525 64.13344995 26.8248934 64.15087891 29.29980469 C64.42029472 68.57112153 64.42029472 68.57112153 54.98828125 79.28515625 C47.04346733 86.92493368 39.68909182 88.47819111 28.88256836 88.34985352 C20.05334258 88.04058591 14.17746784 86.05252927 7.72265625 79.95703125 C5.05934947 76.93136981 3.36272376 73.77784806 2 70 C1.65775391 69.09822021 1.31550781 68.19644043 0.96289062 67.26733398 C-0.74447685 61.19180857 -0.24439945 54.78939437 -0.1953125 48.53515625 C-0.19157708 47.1326874 -0.18873261 45.73021593 -0.18673706 44.32774353 C-0.17914221 40.65673473 -0.15952998 36.98588705 -0.1373291 33.31494141 C-0.11678072 29.56089456 -0.10771621 25.80682139 -0.09765625 22.05273438 C-0.07627963 14.70174136 -0.04113196 7.35091388 0 0 Z " fill="#283077" transform="translate(0,704)"/>
<path d="M0 0 C1.93166016 0.01740234 1.93166016 0.01740234 3.90234375 0.03515625 C5.19269531 0.04417969 6.48304688 0.05320312 7.8125 0.0625 C8.81152344 0.07410156 9.81054688 0.08570313 10.83984375 0.09765625 C14.46000559 8.71942503 17.45388354 17.54162598 20.4453125 26.39453125 C20.9751786 27.95773899 21.50515391 29.52090972 22.03523254 31.08404541 C23.13892582 34.34103132 24.24045132 37.59874073 25.34057617 40.85693359 C26.74772429 45.02344392 28.16163958 49.18762283 29.57732677 53.35123825 C30.67090097 56.57068715 31.76022725 59.79156133 32.84835243 63.01285553 C33.36797889 64.54907785 33.88906691 66.08480663 34.41167259 67.62001801 C35.14109399 69.76441949 35.86459378 71.91073307 36.58666992 74.05761719 C37.20477791 75.88434967 37.20477791 75.88434967 37.83537292 77.74798584 C38.83984375 81.09765625 38.83984375 81.09765625 39.83984375 87.09765625 C35.54984375 87.09765625 31.25984375 87.09765625 26.83984375 87.09765625 C25.50104221 83.16193832 24.16859228 79.22426717 22.83984375 75.28515625 C22.45828125 74.16560547 22.07671875 73.04605469 21.68359375 71.89257812 C21.32265625 70.81943359 20.96171875 69.74628906 20.58984375 68.640625 C20.2546875 67.6508667 19.91953125 66.6611084 19.57421875 65.64135742 C18.83984375 63.09765625 18.83984375 63.09765625 18.83984375 60.09765625 C8.93984375 60.09765625 -0.96015625 60.09765625 -11.16015625 60.09765625 C-12.15015625 63.72765625 -13.14015625 67.35765625 -14.16015625 71.09765625 C-15.01148331 73.81895026 -15.87390068 76.52263974 -16.78515625 79.22265625 C-17.11 80.20878906 -17.11 80.20878906 -17.44140625 81.21484375 C-19.03326378 85.97076378 -19.03326378 85.97076378 -20.16015625 87.09765625 C-22.17979824 87.17009678 -24.20182749 87.18142813 -26.22265625 87.16015625 C-27.32738281 87.15113281 -28.43210937 87.14210938 -29.5703125 87.1328125 C-30.42496094 87.12121094 -31.27960938 87.10960937 -32.16015625 87.09765625 C-30.96242192 81.26796077 -29.48548486 75.65366126 -27.56225586 70.0234375 C-27.30997726 69.27270462 -27.05769867 68.52197174 -26.79777527 67.74848938 C-25.97391113 65.30081227 -25.14340162 62.85545241 -24.3125 60.41015625 C-23.73450574 58.69916471 -23.15683862 56.98806263 -22.57948303 55.27685547 C-21.37451811 51.70880027 -20.16638344 48.14183991 -18.95581055 44.57568359 C-17.40144662 39.99627967 -15.85393473 35.41459585 -14.30860043 30.83213806 C-13.11933737 27.30734352 -11.9271038 23.78355974 -10.73388863 20.26010132 C-10.16174553 18.56979872 -9.59039787 16.87922666 -9.01984978 15.18838501 C-8.22572453 12.83682113 -7.42775916 10.48659699 -6.62866211 8.13671875 C-6.27408936 7.08331047 -6.27408936 7.08331047 -5.91235352 6.00862122 C-3.90186197 0.1205767 -3.90186197 0.1205767 0 0 Z M2.83984375 13.09765625 C2.68427002 13.62496338 2.52869629 14.15227051 2.3684082 14.69555664 C-0.66992675 24.97014622 -3.78357864 35.19449728 -7.27734375 45.32421875 C-8.26126107 47.93019441 -8.26126107 47.93019441 -8.16015625 50.09765625 C-0.57015625 50.09765625 7.01984375 50.09765625 14.83984375 50.09765625 C13.60426952 44.53757222 12.41793435 39.44464882 10.67578125 34.09375 C10.07636719 32.24233398 10.07636719 32.24233398 9.46484375 30.35351562 C9.04826787 29.08069945 8.63160011 27.80791334 8.21484375 26.53515625 C7.78998487 25.22733683 7.36550284 23.91939493 6.94140625 22.61132812 C5.91123977 19.43888362 4.87729718 16.2677237 3.83984375 13.09765625 C3.50984375 13.09765625 3.17984375 13.09765625 2.83984375 13.09765625 Z " fill="#283077" transform="translate(2076.16015625,703.90234375)"/>
<path d="M0 0 C6.43156641 5.28817683 11.00134614 12.21272822 12.11352539 20.57617188 C12.24934444 22.95538152 12.28001631 25.30468509 12.25 27.6875 C12.24315186 28.52240967 12.23630371 29.35731934 12.22924805 30.2175293 C11.98793134 39.49150199 9.51347287 46.76382197 2.8125 53.3125 C-5.87481939 59.89213641 -14.45695117 61.10880594 -25.1875 60.3125 C-32.80181568 59.1220265 -38.13158689 54.99660271 -43.1875 49.3125 C-49.5885343 39.56106206 -49.24144708 27.70933117 -47.83203125 16.48046875 C-45.88177872 9.21610531 -40.11822326 2.93298217 -33.9609375 -1.171875 C-22.77335357 -6.95422175 -10.87366888 -5.75664823 0 0 Z M-28.875 7.9375 C-35.25498919 14.48992133 -36.48489233 22.17428665 -36.40625 31.01171875 C-35.98185182 37.41558412 -33.853975 42.77214594 -29.1875 47.3125 C-25.24331534 50.1272136 -21.58117542 51.67749082 -16.6875 51.5 C-11.19165702 50.53182041 -7.63620584 47.58640408 -4.1875 43.3125 C-0.22063597 36.73085798 0.88026922 29.88395448 -0.1875 22.3125 C-2.23795409 14.61507341 -5.50092187 9.77021875 -12.1875 5.3125 C-18.58276203 3.8366703 -23.24738363 4.53475522 -28.875 7.9375 Z " fill="#283077" transform="translate(740.1875,731.6875)"/>
<path d="M0 0 C6.18088805 4.9166155 10.00436019 10.44880799 11.75 18.1875 C13.00474066 29.82356863 12.65384489 40.79987134 5.5 50.5 C-1.53627205 57.37635677 -8.77755934 60.22550688 -18.625 60.5 C-28.28660032 60.28996521 -34.23861425 58.07132629 -41.30078125 51.37890625 C-49.48028275 42.18311399 -48.91015646 30.78506354 -48.25 19.1875 C-47.23207278 11.07764029 -42.18825493 5.53000767 -36.25 0.1875 C-24.99670486 -7.31469676 -11.47261338 -6.39818823 0 0 Z M-28.9375 7.8125 C-35.26320892 14.30917403 -36.60947091 22.04001518 -36.53125 30.8203125 C-36.01338549 37.02030154 -33.79305653 41.31958947 -29.875 46.0625 C-25.66228981 49.4727892 -22.38059913 51.50169585 -16.875 51.3125 C-11.27755447 50.41577601 -7.75460652 47.53068054 -4.25 43.1875 C0.18134752 35.83520792 1.00190598 27.99670401 -0.79296875 19.66796875 C-2.48097567 14.04438769 -4.80905967 10.03469809 -9.5625 6.4375 C-16.48145401 3.21938186 -22.46985393 3.90183028 -28.9375 7.8125 Z " fill="#283077" transform="translate(2382.25,731.8125)"/>
<path d="M0 0 C4.29 0 8.58 0 13 0 C16.50820671 7.56855248 19.46165305 15.3198258 22.3737793 23.13110352 C23.19270558 25.32645495 24.01695882 27.51975444 24.84179688 29.71289062 C25.36750263 31.11706956 25.89290428 32.52136239 26.41796875 33.92578125 C26.6627446 34.57686356 26.90752045 35.22794586 27.15971375 35.89875793 C28.27686893 38.90378732 29.31837489 41.86413137 30 45 C33.89139066 35.79346845 37.03641151 26.33235021 40.25 16.875 C40.80965611 15.23429321 41.36955007 13.59366753 41.9296875 11.953125 C43.28920167 7.96967962 44.64549458 3.98515116 46 0 C50.29 0 54.58 0 59 0 C58.27750694 3.61246528 57.5437117 6.50542496 56.26928711 9.88769531 C55.73754128 11.30637909 55.73754128 11.30637909 55.1950531 12.75372314 C54.80970901 13.76827576 54.42436493 14.78282837 54.02734375 15.828125 C53.62600723 16.89053406 53.22467072 17.95294312 52.81117249 19.04754639 C51.95826713 21.30102525 51.10326805 23.55371263 50.24633789 25.80566406 C48.95913557 29.19306387 47.68328739 32.58458597 46.40820312 35.9765625 C28.85264876 82.3943274 28.85264876 82.3943274 12.1875 89.9375 C9 91 9 91 6 91 C4.80712589 87.12315913 4 84.08378077 4 80 C5.9765625 78.54296875 5.9765625 78.54296875 8.625 77.1875 C13.5443906 74.42512649 16.78112246 71.60741294 20 67 C20.680625 66.05125 21.36125 65.1025 22.0625 64.125 C23.07264379 60.75785403 22.97107144 60.18106657 21.8503418 57.03881836 C21.56621429 56.24079803 21.28208679 55.44277771 20.98934937 54.62057495 C19.17089722 49.803884 17.26623021 45.02516114 15.33203125 40.25390625 C14.43030979 38.01368345 13.52861793 35.77344873 12.62695312 33.53320312 C11.21236833 30.02798699 9.79663094 26.52323982 8.38012695 23.01879883 C7.00706759 19.61914643 5.63811827 16.21786098 4.26953125 12.81640625 C3.84146683 11.76127335 3.4134024 10.70614044 2.97236633 9.61903381 C2.58163437 8.6471965 2.1909024 7.67535919 1.78833008 6.67407227 C1.44208084 5.8174147 1.0958316 4.96075714 0.73908997 4.07814026 C0 2 0 2 0 0 Z " fill="#283077" transform="translate(2836,728)"/>
<path d="M0 0 C5.51577796 5.36256191 7.5394159 10.83198838 9.25 18.1875 C9.25 22.1475 9.25 26.1075 9.25 30.1875 C-4.94 30.1875 -19.13 30.1875 -33.75 30.1875 C-31.98417585 39.59928851 -31.98417585 39.59928851 -26.23828125 46.44140625 C-18.49343852 51.26303285 -7.87050823 50.05617901 0.6875 48.1875 C2.4509375 47.6925 2.4509375 47.6925 4.25 47.1875 C4.745 52.1375 4.745 52.1375 5.25 57.1875 C-6.36436944 60.82104575 -19.43352207 62.73853023 -30.75 57.1875 C-38.37736634 52.93377646 -42.29560965 47.52194113 -45.0234375 39.3828125 C-47.4880405 28.54385951 -46.23655346 17.77321209 -41.0625 8 C-30.35602769 -5.02138524 -14.95868518 -9.85913341 0 0 Z M-29.5 10.0625 C-32.22679579 13.84971638 -33.75 16.50308209 -33.75 21.1875 C-23.52 21.1875 -13.29 21.1875 -2.75 21.1875 C-3.57103356 13.15755327 -3.57103356 13.15755327 -7.75 7.1875 C-15.63050766 1.93382822 -23.11937282 3.39184431 -29.5 10.0625 Z " fill="#283077" transform="translate(263.75,731.8125)"/>
<path d="M0 0 C6.36745838 4.9720117 9.0449289 10.64987462 10.36328125 18.5390625 C10.84999527 22.99071512 10.9687472 26.2031362 9.87109375 30.59375 C-4.31890625 30.59375 -18.50890625 30.59375 -33.12890625 30.59375 C-30.42349847 40.40295479 -30.42349847 40.40295479 -24.12890625 47.59375 C-19.95185684 49.81165234 -15.94780566 49.90440444 -11.31640625 49.84375 C-10.60806641 49.83988281 -9.89972656 49.83601562 -9.16992188 49.83203125 C-4.1716378 49.74926298 0.14501602 49.16910924 4.87109375 47.59375 C5.53109375 50.56375 6.19109375 53.53375 6.87109375 56.59375 C-3.76689319 61.39127352 -16.10637889 62.73294317 -27.31640625 58.84375 C-35.36524751 55.35992319 -39.43136622 50.49000265 -43.12890625 42.59375 C-46.73815141 31.35587301 -45.44136724 19.07378668 -40.12890625 8.59375 C-35.83334864 2.10680387 -30.6330064 -1.72913155 -23.21875 -3.98828125 C-14.84767352 -5.66249655 -7.10650105 -4.69420253 0 0 Z M-28.12890625 9.59375 C-30.74878238 13.39558175 -32.01289646 17.12971085 -33.12890625 21.59375 C-22.56890625 21.59375 -12.00890625 21.59375 -1.12890625 21.59375 C-2.86711104 12.71467858 -2.86711104 12.71467858 -8.12890625 6.59375 C-15.29106971 2.44723431 -22.27852631 4.2902534 -28.12890625 9.59375 Z " fill="#283077" transform="translate(1123.12890625,731.40625)"/>
<path d="M0 0 C4.29 0 8.58 0 13 0 C19.26943801 15.13548249 24.75632146 30.48134801 30 46 C30.18570053 45.43845718 30.37140106 44.87691437 30.56272888 44.2983551 C32.48947714 38.47399333 34.42038626 32.65102324 36.35375977 26.82885742 C37.07554068 24.65343347 37.79624612 22.4776524 38.51586914 20.30151367 C39.54814188 17.18054041 40.58422741 14.06085593 41.62109375 10.94140625 C41.94403915 9.96224747 42.26698456 8.98308868 42.59971619 7.97425842 C42.89995193 7.07340012 43.20018768 6.17254181 43.50952148 5.24438477 C43.77377426 4.44718521 44.03802704 3.64998566 44.31028748 2.82862854 C45 1 45 1 46 0 C48.18639453 -0.07258946 50.37500389 -0.08373783 52.5625 -0.0625 C54.35880859 -0.04896484 54.35880859 -0.04896484 56.19140625 -0.03515625 C57.11824219 -0.02355469 58.04507813 -0.01195312 59 0 C57.02253827 6.04593809 54.92704508 12.03516942 52.70703125 17.99609375 C52.39730881 18.82851089 52.08758636 19.66092804 51.76847839 20.51856995 C51.11472988 22.27273654 50.46003805 24.02655185 49.80444336 25.7800293 C48.82735931 28.3976911 47.85795949 31.01811507 46.88867188 33.63867188 C29.00955032 81.66572954 29.00955032 81.66572954 12.0625 89.5 C9.85372785 90.40376568 8.38395176 91 6 91 C5.01 87.37 4.02 83.74 3 80 C4.19625 79.443125 5.3925 78.88625 6.625 78.3125 C13.32747309 74.90806923 17.40390303 70.88640163 21.21484375 64.4765625 C23.49891396 57.27208232 19.02800982 49.58452019 16.30859375 43.046875 C15.61154076 41.34111298 15.61154076 41.34111298 14.90040588 39.60089111 C13.42025183 35.98080605 11.92976594 32.36510743 10.4375 28.75 C8.94262389 25.12023819 7.45010115 21.48957789 5.96388245 17.85626221 C5.03992082 15.59819097 4.11081512 13.34221652 3.1761322 11.08856201 C2.7589241 10.07030334 2.341716 9.05204468 1.91186523 8.00292969 C1.5418187 7.10693054 1.17177216 6.2109314 0.79051208 5.28778076 C0 3 0 3 0 0 Z " fill="#283077" transform="translate(2444,728)"/>
<path d="M0 0 C6.61065422 6.27164632 7.90057598 14.83129792 8.20532227 23.55834961 C8.24660482 25.25624954 8.28343389 26.95426211 8.31640625 28.65234375 C8.33718735 29.55247696 8.35796844 30.45261017 8.37937927 31.38002014 C8.44433837 34.23244187 8.50350828 37.08494925 8.5625 39.9375 C8.60573633 41.88086794 8.64935219 43.82422748 8.69335938 45.76757812 C8.79996415 50.51163279 8.90137995 55.25577291 9 60 C5.04 60 1.08 60 -3 60 C-3.495 57.03 -3.495 57.03 -4 54 C-4.86625 54.78375 -5.7325 55.5675 -6.625 56.375 C-12.28637835 61.00108 -17.87578553 61.46420181 -25.02734375 61.3046875 C-30.30678604 60.76356201 -33.87738418 59.15894421 -37.59765625 55.375 C-41.8166093 49.73405999 -41.95355252 43.80323049 -41 37 C-39.44364986 30.87699091 -35.94708386 27.45767967 -30.61328125 24.25390625 C-22.04014463 20.14033845 -13.37503797 19.55119499 -4 20 C-5.96023044 12.37843046 -5.96023044 12.37843046 -11.0625 6.75 C-18.7925609 4.52719279 -26.88362473 6.91176168 -34 10 C-37 4.375 -37 4.375 -37 1 C-35.60721983 0.34760842 -34.21060788 -0.29660552 -32.8125 -0.9375 C-32.03519531 -1.29714844 -31.25789063 -1.65679688 -30.45703125 -2.02734375 C-20.73282008 -5.87683275 -9.01464249 -5.32525213 0 0 Z M-27.875 35.75 C-29.56721478 39.13442956 -29.79579115 42.35382964 -29 46 C-26.82425584 48.69105198 -25.08934144 50.45532928 -22 52 C-15.86706387 52.28728621 -11.9399253 50.83492108 -7.41015625 46.765625 C-4.12941493 42.6578824 -3.76205183 38.82664153 -3.875 33.6875 C-3.89304687 32.61886719 -3.91109375 31.55023437 -3.9296875 30.44921875 C-3.95289062 29.64097656 -3.97609375 28.83273437 -4 28 C-13.45627017 28 -20.8962629 29.23651204 -27.875 35.75 Z " fill="#283077" transform="translate(2631,731)"/>
<path d="M0 0 C5.52059051 4.47583359 8.00292161 10.31746846 10 17 C10 21.62 10 26.24 10 31 C-4.19 31 -18.38 31 -33 31 C-30.3058451 42.36818229 -30.3058451 42.36818229 -22.32421875 48.60546875 C-18.48610733 50.2155813 -15.21109625 50.41697405 -11.125 50.3125 C-10.42117188 50.30412109 -9.71734375 50.29574219 -8.9921875 50.28710938 C-4.03061037 50.17225805 0.30694435 49.56435188 5 48 C5.66 50.97 6.32 53.94 7 57 C-3.60479651 61.78255529 -15.92867436 63.12663291 -27.125 59.3125 C-33.86791324 56.43134517 -38.47798702 52.55823106 -42 46 C-46.12782672 34.92750344 -46.33675837 24.04645999 -42 13 C-38.0925867 5.27038178 -32.70241335 -0.04805484 -24.6875 -3.375 C-15.79924755 -4.88148347 -7.92455666 -4.69345447 0 0 Z M-27 9 C-30.42905037 13.23328641 -31.92130216 16.60651078 -33 22 C-22.44 22 -11.88 22 -1 22 C-2.73820479 13.12092858 -2.73820479 13.12092858 -8 7 C-14.41736899 3.28468111 -21.41921898 4.22976099 -27 9 Z " fill="#283077" transform="translate(2000,731)"/>
<path d="M0 0 C6.11261126 5.7522563 6.95051478 13.98623309 7.28094482 21.95822144 C7.41546425 27.03462869 7.46595448 32.10957168 7.5 37.1875 C7.52819711 39.30536258 7.55812969 41.42320279 7.58984375 43.54101562 C7.66326431 48.69397003 7.71311093 53.84665988 7.75 59 C4.12 59 0.49 59 -3.25 59 C-3.91 57.02 -4.57 55.04 -5.25 53 C-6.11625 53.78375 -6.9825 54.5675 -7.875 55.375 C-14.2879059 60.61517542 -21.23984282 60.68406301 -29.25 60 C-34.70248198 58.28347789 -38.0378009 54.60380327 -41.25 50 C-43.14340495 44.31978516 -43.17131907 38.25898331 -40.6875 32.75 C-36.8635021 26.1315421 -31.68853596 22.69559284 -24.4609375 20.54296875 C-19.84460509 19.40927581 -15.71019717 18.88505278 -10.9375 18.9375 C-9.33455078 18.95103516 -9.33455078 18.95103516 -7.69921875 18.96484375 C-6.89097656 18.97644531 -6.08273437 18.98804688 -5.25 19 C-5.64842559 17.39120578 -6.06953157 15.78801827 -6.5 14.1875 C-6.84804687 12.84751953 -6.84804687 12.84751953 -7.203125 11.48046875 C-8.44017547 8.54939768 -9.51163683 7.57119198 -12.25 6 C-20.22228348 3.5057014 -27.67468719 6.47489573 -35.25 9 C-36.24 6.03 -37.23 3.06 -38.25 0 C-36.68979133 -0.65134925 -35.12671421 -1.29582964 -33.5625 -1.9375 C-32.69238281 -2.29714844 -31.82226562 -2.65679688 -30.92578125 -3.02734375 C-20.19616601 -6.92759805 -9.5965515 -5.90557016 0 0 Z M-27.25 33 C-29.81499525 35.97870417 -30.50050802 38.15306664 -30.3125 42 C-29.65143 45.66719882 -28.25237505 47.99350237 -25.125 50.21875 C-21.42444614 51.76064744 -18.00336203 51.10986512 -14.25 50 C-9.78037955 47.68241902 -7.41337099 45.52113184 -5.25 41 C-4.88881509 37.41771784 -4.88881509 37.41771784 -5.0625 33.6875 C-5.08957031 32.43324219 -5.11664062 31.17898438 -5.14453125 29.88671875 C-5.17933594 28.93410156 -5.21414063 27.98148438 -5.25 27 C-13.02558593 27 -21.35627229 27.57156659 -27.25 33 Z " fill="#283077" transform="translate(1255.25,732)"/>
<path d="M0 0 C4.29 0 8.58 0 13 0 C13.0093457 1.26070312 13.01869141 2.52140625 13.02832031 3.8203125 C13.06837372 8.52460278 13.13417501 13.22824963 13.20751953 17.93212891 C13.23564035 19.96296892 13.25689886 21.99391657 13.27099609 24.02490234 C13.29254898 26.95465855 13.33926222 29.88313265 13.390625 32.8125 C13.39185364 33.71178223 13.39308228 34.61106445 13.39434814 35.53759766 C13.52972941 41.44403735 14.60064388 46.08050859 18 51 C21.68923479 53.63516771 25.52683776 53.160158 29.8515625 52.53515625 C34.17359405 51.45857748 36.28525345 49.1312551 38.60083008 45.46630859 C40.4222911 40.9538145 40.47701394 37.04798827 40.51171875 32.2265625 C40.52966995 31.3028183 40.54762115 30.3790741 40.56611633 29.42733765 C40.62005424 26.49327074 40.654062 23.55936499 40.6875 20.625 C40.72068766 18.62888391 40.75517865 16.63278903 40.79101562 14.63671875 C40.87577126 9.75792907 40.94266117 4.87918581 41 0 C44.96 0 48.92 0 53 0 C53.33 20.79 53.66 41.58 54 63 C50.37 63 46.74 63 43 63 C42.34 60.69 41.68 58.38 41 56 C40.34644531 56.61488281 40.34644531 56.61488281 39.6796875 57.2421875 C33.12930532 63.16872376 27.78592106 64.48035213 18.9765625 64.31640625 C13.37745263 63.72122528 9.62827241 61.62827241 5.6875 57.6875 C0.3689439 49.21720696 -0.1558481 41.05172858 -0.09765625 31.34765625 C-0.0962413 30.44752304 -0.09482635 29.54738983 -0.09336853 28.61997986 C-0.0878066 25.76745163 -0.07526127 22.91500419 -0.0625 20.0625 C-0.05748008 18.11914176 -0.05291803 16.17578229 -0.04882812 14.23242188 C-0.03784966 9.4882505 -0.02061153 4.74413891 0 0 Z " fill="#283077" transform="translate(1849,728)"/>
<path d="M0 0 C5.16198797 4.63964395 8.57130212 9.24250293 9.21194458 16.35206604 C9.32676244 19.1913253 9.38114554 22.0257967 9.4140625 24.8671875 C9.43342865 25.90191193 9.4527948 26.93663635 9.4727478 28.00271606 C9.53231842 31.29339467 9.57883905 34.58410868 9.625 37.875 C9.66320048 40.11199405 9.70225341 42.34897372 9.7421875 44.5859375 C9.83800156 50.05717425 9.92211585 55.52847983 10 61 C6.37 61 2.74 61 -1 61 C-1 59.02 -1 57.04 -1 55 C-1.68707031 55.42152344 -2.37414063 55.84304688 -3.08203125 56.27734375 C-3.98308594 56.82519531 -4.88414063 57.37304688 -5.8125 57.9375 C-6.70582031 58.48277344 -7.59914063 59.02804687 -8.51953125 59.58984375 C-14.09098575 62.75723757 -19.74772735 62.5705496 -26 62 C-31.31067493 60.42646669 -35.10350032 57.79036486 -38 53 C-40.82342595 46.00865956 -40.28803182 40.16641155 -37.5 33.3125 C-33.09421567 26.50643174 -25.54457563 23.3014305 -17.9296875 21.45703125 C-12.95060538 20.68029444 -8.02194834 20.76336369 -3 21 C-3.63500773 16.56442361 -4.1642995 13.0129703 -7.0625 9.5 C-12.94419789 6.4965798 -18.03553969 6.49561513 -24.3125 8.375 C-25.87599468 8.91378883 -27.4385713 9.45525286 -29 10 C-30.32 10.33 -31.64 10.66 -33 11 C-33.66 8.03 -34.32 5.06 -35 2 C-33.60721983 1.34760842 -32.21060788 0.70339448 -30.8125 0.0625 C-30.03519531 -0.29714844 -29.25789063 -0.65679688 -28.45703125 -1.02734375 C-20.12897654 -4.32414124 -7.73965556 -5.10885158 0 0 Z M-25 35 C-27.70046402 39.05069602 -27.64204044 42.24723307 -27 47 C-25.76546291 50.14744519 -25.76546291 50.14744519 -23 52 C-18.61282371 53.33197003 -15.10571052 53.36148229 -10.75 51.9375 C-7.11272269 49.37487281 -3.86600238 46.50713035 -2.3671875 42.16796875 C-1.91485466 39.49728018 -1.90526716 36.9575589 -1.9375 34.25 C-1.94652344 33.26515625 -1.95554687 32.2803125 -1.96484375 31.265625 C-1.97644531 30.51796875 -1.98804688 29.7703125 -2 29 C-10.34546673 29 -18.13125511 30.07242215 -25 35 Z " fill="#283077" transform="translate(1520,730)"/>
<path d="M0 0 C4.92060533 4.31808223 8.55187149 9.83894412 9.26298523 16.44192505 C9.34576608 19.28753498 9.33740124 22.11837582 9.29296875 24.96484375 C9.28872391 25.99815323 9.28447906 27.03146271 9.28010559 28.09608459 C9.26339394 31.37682822 9.22575511 34.65694392 9.1875 37.9375 C9.17244348 40.16991297 9.15875677 42.40233562 9.14648438 44.63476562 C9.11351493 50.09008346 9.06178414 55.54493549 9 61 C5.04 61 1.08 61 -3 61 C-3.01458252 59.72882324 -3.02916504 58.45764648 -3.04418945 57.14794922 C-3.10229807 52.41768708 -3.17953048 47.6878947 -3.26245117 42.95800781 C-3.29564141 40.9134892 -3.32369163 38.86888026 -3.34643555 36.82421875 C-3.38008993 33.87981794 -3.43241166 30.93624046 -3.48828125 27.9921875 C-3.49467117 27.0825827 -3.5010611 26.17297791 -3.50764465 25.23580933 C-3.64520385 19.25620099 -4.41903524 14.67314207 -8.75 10.1875 C-13.28570401 7.79365622 -16.81427395 7.63825307 -21.6875 9.125 C-26.05063309 11.59469798 -28.16127679 13.98152592 -30.07958984 18.59814453 C-31.22540204 22.83309074 -31.35269477 26.7495922 -31.4140625 31.1171875 C-31.43342865 31.97434357 -31.4527948 32.83149963 -31.4727478 33.71463013 C-31.53221256 36.43465428 -31.57879569 39.15472152 -31.625 41.875 C-31.6632103 43.72658028 -31.70226378 45.57814337 -31.7421875 47.4296875 C-31.83788664 51.95298425 -31.92203906 56.47636416 -32 61 C-35.96 61 -39.92 61 -44 61 C-44 40.21 -44 19.42 -44 -2 C-40.37 -2 -36.74 -2 -33 -2 C-32.67 0.64 -32.34 3.28 -32 6 C-30.9171875 4.8553125 -30.9171875 4.8553125 -29.8125 3.6875 C-21.82115687 -3.94867232 -9.75861311 -5.93911293 0 0 Z " fill="#283077" transform="translate(1381,730)"/>
<path d="M0 0 C4.92060533 4.31808223 8.55187149 9.83894412 9.26298523 16.44192505 C9.34576608 19.28753498 9.33740124 22.11837582 9.29296875 24.96484375 C9.28872391 25.99815323 9.28447906 27.03146271 9.28010559 28.09608459 C9.26339394 31.37682822 9.22575511 34.65694392 9.1875 37.9375 C9.17244348 40.16991297 9.15875677 42.40233562 9.14648438 44.63476562 C9.11351493 50.09008346 9.06178414 55.54493549 9 61 C5.04 61 1.08 61 -3 61 C-3.01458252 59.72882324 -3.02916504 58.45764648 -3.04418945 57.14794922 C-3.10229807 52.41768708 -3.17953048 47.6878947 -3.26245117 42.95800781 C-3.29564141 40.9134892 -3.32369163 38.86888026 -3.34643555 36.82421875 C-3.38008993 33.87981794 -3.43241166 30.93624046 -3.48828125 27.9921875 C-3.49467117 27.0825827 -3.5010611 26.17297791 -3.50764465 25.23580933 C-3.64520385 19.25620099 -4.41903524 14.67314207 -8.75 10.1875 C-13.28570401 7.79365622 -16.81427395 7.63825307 -21.6875 9.125 C-26.05063309 11.59469798 -28.16127679 13.98152592 -30.07958984 18.59814453 C-31.22540204 22.83309074 -31.35269477 26.7495922 -31.4140625 31.1171875 C-31.43342865 31.97434357 -31.4527948 32.83149963 -31.4727478 33.71463013 C-31.53221256 36.43465428 -31.57879569 39.15472152 -31.625 41.875 C-31.6632103 43.72658028 -31.70226378 45.57814337 -31.7421875 47.4296875 C-31.83788664 51.95298425 -31.92203906 56.47636416 -32 61 C-35.96 61 -39.92 61 -44 61 C-44 40.21 -44 19.42 -44 -2 C-40.37 -2 -36.74 -2 -33 -2 C-32.67 0.64 -32.34 3.28 -32 6 C-30.9171875 4.8553125 -30.9171875 4.8553125 -29.8125 3.6875 C-21.82115687 -3.94867232 -9.75861311 -5.93911293 0 0 Z " fill="#283077" transform="translate(125,730)"/>
<path d="M0 0 C6.11501404 5.57226131 8.90007454 10.84571727 10 19 C10.13132207 22.2585759 10.11661441 25.51267133 10.09765625 28.7734375 C10.0962413 29.6971817 10.09482635 30.6209259 10.09336853 31.57266235 C10.08779609 34.50680862 10.07524869 37.44087701 10.0625 40.375 C10.05748144 42.37109264 10.05291915 44.36718649 10.04882812 46.36328125 C10.03783569 51.24221725 10.0205901 56.12109545 10 61 C6.04 61 2.08 61 -2 61 C-2.029729 59.38943726 -2.029729 59.38943726 -2.06005859 57.74633789 C-2.13668444 53.72609771 -2.22530932 49.70619288 -2.31738281 45.6862793 C-2.35543894 43.95327421 -2.39033058 42.22019639 -2.421875 40.48706055 C-2.468038 37.98199638 -2.52594178 35.47742293 -2.5859375 32.97265625 C-2.59748871 32.20977798 -2.60903992 31.44689972 -2.62094116 30.66090393 C-2.7664294 25.24189121 -3.67416324 20.24881593 -5 15 C-5.226875 14.030625 -5.45375 13.06125 -5.6875 12.0625 C-6.9325481 9.68403494 -6.9325481 9.68403494 -10.125 8.625 C-15.02546007 7.83460322 -19.36226584 7.43948619 -23.76953125 10.046875 C-27.3301206 12.85376296 -29.68053652 15.5754385 -30.2784729 20.11346436 C-30.29179657 20.86847229 -30.30512024 21.62348022 -30.31884766 22.40136719 C-30.33871735 23.2619574 -30.35858704 24.12254761 -30.37905884 25.00921631 C-30.39638565 26.38910736 -30.39638565 26.38910736 -30.4140625 27.796875 C-30.43342865 28.74564514 -30.4527948 29.69441528 -30.4727478 30.67193604 C-30.53245659 33.69786633 -30.57889433 36.72383484 -30.625 39.75 C-30.66318777 41.80340187 -30.70223997 43.85678786 -30.7421875 45.91015625 C-30.83815108 50.93997496 -30.92221446 55.96986865 -31 61 C-34.96 61 -38.92 61 -43 61 C-43.14469635 54.59949547 -43.28700332 48.19894351 -43.42724609 41.79833984 C-43.47511715 39.62807843 -43.52360287 37.45783046 -43.57275391 35.28759766 C-43.85385207 22.85617482 -44.08283852 10.4349818 -44 -2 C-40.37 -2 -36.74 -2 -33 -2 C-32.67 0.64 -32.34 3.28 -32 6 C-31.49210937 5.51789062 -30.98421875 5.03578125 -30.4609375 4.5390625 C-21.99952897 -3.22515132 -10.49168814 -6.56002033 0 0 Z " fill="#283077" transform="translate(527,730)"/>
<path d="M0 0 C3.96 0 7.92 0 12 0 C12.01981934 0.99741211 12.03963867 1.99482422 12.06005859 3.02246094 C12.13705708 6.78001011 12.225615 10.53721856 12.31738281 14.29443359 C12.35528854 15.90992427 12.39020255 17.52548838 12.421875 19.14111328 C12.05739754 35.3504009 12.05739754 35.3504009 17.0625 50.1875 C21.04027227 52.64187013 24.34036054 53.39163351 29 53 C34.09379635 51.47485158 36.53495525 48.75195732 39.12590027 44.11288452 C40.73513705 40.22301777 40.60358644 36.28701737 40.609375 32.12890625 C40.62591125 31.206577 40.64244751 30.28424774 40.65948486 29.33396912 C40.70777447 26.41007705 40.72929341 23.48670437 40.75 20.5625 C40.77817561 18.57093768 40.80810526 16.57939935 40.83984375 14.58789062 C40.91352832 9.72530321 40.96321914 4.8630009 41 0 C44.96 0 48.92 0 53 0 C53.33 20.79 53.66 41.58 54 63 C50.37 63 46.74 63 43 63 C42.34 60.69 41.68 58.38 41 56 C40.34644531 56.61488281 40.34644531 56.61488281 39.6796875 57.2421875 C33.12930532 63.16872376 27.78592106 64.48035213 18.9765625 64.31640625 C13.37745263 63.72122528 9.62827241 61.62827241 5.6875 57.6875 C0.3689439 49.21720696 -0.1558481 41.05172858 -0.09765625 31.34765625 C-0.0962413 30.44752304 -0.09482635 29.54738983 -0.09336853 28.61997986 C-0.0878066 25.76745163 -0.07526127 22.91500419 -0.0625 20.0625 C-0.05748008 18.11914176 -0.05291803 16.17578229 -0.04882812 14.23242188 C-0.03784966 9.4882505 -0.02061153 4.74413891 0 0 Z " fill="#283077" transform="translate(1679,728)"/>
<path d="M0 0 C15.51 0 31.02 0 47 0 C47 3.63 47 7.26 47 11 C35.45 11 23.9 11 12 11 C12 19.91 12 28.82 12 38 C22.56 38 33.12 38 44 38 C44 41.3 44 44.6 44 48 C33.44 48 22.88 48 12 48 C12 60.87 12 73.74 12 87 C8.04 87 4.08 87 0 87 C0 58.29 0 29.58 0 0 Z " fill="#283077" transform="translate(2539,704)"/>
<path d="M0 0 C-0.33 3.3 -0.66 6.6 -1 10 C-3.0728125 9.690625 -3.0728125 9.690625 -5.1875 9.375 C-9.0357735 8.95815405 -11.60586853 8.90362468 -15 11 C-18.11902918 14.32227419 -18.60845985 17.29584498 -19.1875 21.75 C-19.455625 23.8125 -19.72375 25.875 -20 28 C-15.38 28 -10.76 28 -6 28 C-6 31.3 -6 34.6 -6 38 C-10.62 38 -15.24 38 -20 38 C-20 55.49 -20 72.98 -20 91 C-23.96 91 -27.92 91 -32 91 C-32 73.51 -32 56.02 -32 38 C-34.97 38 -37.94 38 -41 38 C-41 34.7 -41 31.4 -41 28 C-38.03 28 -35.06 28 -32 28 C-32.04640625 27.23816406 -32.0928125 26.47632813 -32.140625 25.69140625 C-32.44667244 16.93626348 -31.25320599 10.93809146 -25.625 4.125 C-18.51798798 -1.62829544 -8.61944388 -4.30972194 0 0 Z " fill="#283077" transform="translate(1441,700)"/>
<path d="M0 0 C4.29 0 8.58 0 13 0 C15.12017871 6.04983012 17.23804057 12.10046434 19.35375977 18.15185547 C20.07382611 20.21034656 20.794525 22.26861649 21.51586914 24.32666016 C22.55260948 27.28490204 23.58707231 30.24393183 24.62109375 33.203125 C24.94403915 34.12305237 25.26698456 35.04297974 25.59971619 35.99078369 C25.89995193 36.8513739 26.20018768 37.71196411 26.50952148 38.59863281 C26.77377426 39.35364075 27.03802704 40.10864868 27.31028748 40.88653564 C27.9704226 42.90936691 28.51168565 44.92967757 29 47 C34.80811266 31.38348516 40.41543665 15.69745474 46 0 C50.29 0 54.58 0 59 0 C56.91967823 7.28381821 54.43814226 14.27222452 51.62109375 21.30078125 C51.20835709 22.34018356 50.79562042 23.37958588 50.37037659 24.45048523 C49.0633344 27.73939789 47.75051942 31.02596969 46.4375 34.3125 C45.55235118 36.53695693 44.66758203 38.76156499 43.78320312 40.98632812 C40.86352841 48.3274467 37.93413918 55.66465205 35 63 C31.04 63 27.08 63 23 63 C17.77745514 50.31906039 12.8743384 37.51891155 8.03713989 24.68701172 C7.3450428 22.85222639 6.65125232 21.01807894 5.95578003 19.18457031 C4.96544081 16.57154242 3.98180007 13.95609015 3 11.33984375 C2.69723648 10.54372177 2.39447296 9.74759979 2.08253479 8.92735291 C0.92581702 5.82583302 0 3.33874276 0 0 Z " fill="#283077" transform="translate(2190,728)"/>
<path d="M0 0 C0 5.61 0 11.22 0 17 C5.28 17 10.56 17 16 17 C16 20.3 16 23.6 16 27 C10.72 27 5.44 27 0 27 C0.04414465 32.481548 0.11396859 37.96194322 0.20751953 43.44287109 C0.23573006 45.30703553 0.25694421 47.1713196 0.27099609 49.03564453 C0.29242484 51.71709441 0.33907298 54.39710586 0.390625 57.078125 C0.39185364 57.91055725 0.39308228 58.7429895 0.39434814 59.60064697 C0.4913901 63.4417836 0.54164025 65.38585475 2.890625 68.53320312 C5.4133763 70.28744963 6.7122779 70.42868954 9.75 70.25 C10.54921875 70.21390625 11.3484375 70.1778125 12.171875 70.140625 C12.77515625 70.09421875 13.3784375 70.0478125 14 70 C15.60725635 73.21451269 15.05748185 76.43612536 15 80 C8.79212207 81.82236035 0.92726823 82.41863316 -5 79.5 C-9.17525027 76.02062477 -11.53954131 72.10992466 -12.3458252 66.66430664 C-12.45972805 64.11016028 -12.45076504 61.58717238 -12.390625 59.03125 C-12.38496521 58.11033569 -12.37930542 57.18942139 -12.37347412 56.24060059 C-12.35125236 53.32651693 -12.30108383 50.41370603 -12.25 47.5 C-12.2299166 45.51303871 -12.21166906 43.52605796 -12.1953125 41.5390625 C-12.1514343 36.69222501 -12.08250689 31.84632758 -12 27 C-15.3 27 -18.6 27 -22 27 C-22 23.7 -22 20.4 -22 17 C-18.7 17 -15.4 17 -12 17 C-12 12.38 -12 7.76 -12 3 C-4.5 0 -4.5 0 0 0 Z " fill="#283077" transform="translate(196,711)"/>
<path d="M0 0 C0 5.61 0 11.22 0 17 C5.28 17 10.56 17 16 17 C16 20.3 16 23.6 16 27 C10.72 27 5.44 27 0 27 C0.09362397 32.33884963 0.199738 37.67725056 0.31738281 43.015625 C0.35564191 44.83131121 0.39050017 46.64707241 0.421875 48.46289062 C0.4675923 51.07449123 0.52557536 53.68557688 0.5859375 56.296875 C0.59748871 57.10743347 0.60903992 57.91799194 0.62094116 58.75311279 C0.71129106 64.20058756 0.71129106 64.20058756 3 69 C5.52475462 70.26237731 7.31200466 70.09856404 10.125 70.0625 C11.73375 70.041875 13.3425 70.02125 15 70 C15 73.3 15 76.6 15 80 C7.55627799 81.8609305 0.3788322 82.13603683 -6.41015625 78.20703125 C-9.93147771 75.53359555 -11.12708668 72.17424301 -12 68 C-12.0828629 66.59600948 -12.11786621 65.18865352 -12.11352539 63.78222656 C-12.11344986 62.96167786 -12.11337433 62.14112915 -12.11329651 61.29571533 C-12.10813522 60.41953552 -12.10297394 59.54335571 -12.09765625 58.640625 C-12.0962413 57.73624695 -12.09482635 56.8318689 -12.09336853 55.90008545 C-12.08777911 53.01668973 -12.07522853 50.13337218 -12.0625 47.25 C-12.05748363 45.29296987 -12.05292096 43.33593853 -12.04882812 41.37890625 C-12.03781313 36.58590747 -12.02055574 31.79296698 -12 27 C-15.3 27 -18.6 27 -22 27 C-22 23.7 -22 20.4 -22 17 C-18.7 17 -15.4 17 -12 17 C-12 12.38 -12 7.76 -12 3 C-4.5 0 -4.5 0 0 0 Z " fill="#283077" transform="translate(1611,711)"/>
<path d="M0 0 C0 5.61 0 11.22 0 17 C5.28 17 10.56 17 16 17 C16 20.3 16 23.6 16 27 C10.72 27 5.44 27 0 27 C0.09362397 32.33884963 0.199738 37.67725056 0.31738281 43.015625 C0.35564191 44.83131121 0.39050017 46.64707241 0.421875 48.46289062 C0.4675923 51.07449123 0.52557536 53.68557688 0.5859375 56.296875 C0.59748871 57.10743347 0.60903992 57.91799194 0.62094116 58.75311279 C0.71129106 64.20058756 0.71129106 64.20058756 3 69 C5.52475462 70.26237731 7.31200466 70.09856404 10.125 70.0625 C11.73375 70.041875 13.3425 70.02125 15 70 C15 73.3 15 76.6 15 80 C7.55627799 81.8609305 0.3788322 82.13603683 -6.41015625 78.20703125 C-9.93147771 75.53359555 -11.12708668 72.17424301 -12 68 C-12.0828629 66.59600948 -12.11786621 65.18865352 -12.11352539 63.78222656 C-12.11344986 62.96167786 -12.11337433 62.14112915 -12.11329651 61.29571533 C-12.10813522 60.41953552 -12.10297394 59.54335571 -12.09765625 58.640625 C-12.0962413 57.73624695 -12.09482635 56.8318689 -12.09336853 55.90008545 C-12.08777911 53.01668973 -12.07522853 50.13337218 -12.0625 47.25 C-12.05748363 45.29296987 -12.05292096 43.33593853 -12.04882812 41.37890625 C-12.03781313 36.58590747 -12.02055574 31.79296698 -12 27 C-15.3 27 -18.6 27 -22 27 C-22 23.7 -22 20.4 -22 17 C-18.7 17 -15.4 17 -12 17 C-12 12.38 -12 7.76 -12 3 C-4.5 0 -4.5 0 0 0 Z " fill="#283077" transform="translate(2816,711)"/>
<path d="M0 0 C1 2 1 2 0.44140625 3.9453125 C0.15136719 4.66460938 -0.13867188 5.38390625 -0.4375 6.125 C-0.86869141 7.21167969 -0.86869141 7.21167969 -1.30859375 8.3203125 C-1.53675781 8.87460937 -1.76492187 9.42890625 -2 10 C-2.92941406 9.74863281 -3.85882812 9.49726562 -4.81640625 9.23828125 C-12.54219022 7.02685491 -12.54219022 7.02685491 -20.3125 7.875 C-23.28901544 9.83622687 -23.28901544 9.83622687 -24.1875 13.4375 C-24.34178518 16.95876865 -24.34178518 16.95876865 -22.421875 19.03515625 C-19.47236818 21.42806259 -16.59436618 22.612885 -13.0625 24 C-7.4646466 26.20321931 -3.11609278 28.43045877 0.75 33.125 C3.15652871 38.66001603 3.7942373 44.51156925 1.9375 50.3125 C-0.45294259 55.65330866 -4.40680098 58.17495051 -9.5 60.8125 C-18.57497625 63.86071659 -28.33903988 62.58384557 -37 59 C-38.26264601 54.70700357 -37.62950412 52.12168689 -36 48 C-34.9790625 48.433125 -34.9790625 48.433125 -33.9375 48.875 C-27.0959567 51.49516552 -21.2262026 52.88234998 -14 51 C-11.5210029 49.05895082 -11.04812423 48.17398762 -10.1875 45.0625 C-9.98571414 41.76666423 -10.25080805 40.7130886 -12 38 C-13.67160703 36.87019523 -13.67160703 36.87019523 -15.66796875 36.140625 C-16.39371094 35.83398926 -17.11945312 35.52735352 -17.8671875 35.21142578 C-18.63289063 34.89415527 -19.39859375 34.57688477 -20.1875 34.25 C-32.74895823 28.64819778 -32.74895823 28.64819778 -36 22 C-37.5850467 16.91159367 -37.61388651 12.58436966 -35.4375 7.6875 C-32.66956492 2.97915682 -29.28614023 0.14307012 -24.375 -2.3125 C-16.21354239 -3.97501914 -7.53713783 -3.90284097 0 0 Z " fill="#283077" transform="translate(2322,730)"/>
<path d="M0 0 C1.39195915 4.17587745 -0.17676781 6.13474776 -2 10 C-2.71285156 9.77183594 -3.42570312 9.54367187 -4.16015625 9.30859375 C-11.37990759 7.14169665 -15.81044647 6.60348216 -23 9 C-23.83129502 12.24960782 -24.27469083 14.29540685 -23.0390625 17.46484375 C-19.74340318 21.56232056 -15.20925324 22.86107678 -10.42382812 24.78515625 C-4.94451418 27.14236769 -1.30465023 29.97693166 2 35 C3.91795402 40.75386207 3.89303484 46.80606817 1.375 52.375 C-1.37393204 57.15910629 -5.02660399 59.19453224 -10.0625 61.25 C-18.31108528 63.27564815 -29.46045669 63.31751626 -37 59 C-38.05185281 56.69456917 -38.14840129 55.51058347 -37.44140625 53.078125 C-36.62760417 51.38541667 -35.81380208 49.69270833 -35 48 C-34.23816406 48.30035156 -33.47632813 48.60070312 -32.69140625 48.91015625 C-25.03324082 51.73057922 -19.09219981 53.23559992 -11.4375 49.875 C-9.71777217 47.93585319 -9.71777217 47.93585319 -9.4375 44.625 C-10.1694341 39.90809137 -11.17539238 38.84970764 -15 36 C-17.746794 34.63495192 -20.52894375 33.39792354 -23.34375 32.1796875 C-29.15464502 29.59896647 -33.24282815 26.83247892 -36 21 C-36.86768749 15.13868245 -36.79093359 9.52867276 -33.40625 4.5 C-25.10080753 -4.35913864 -10.52815261 -5.94963043 0 0 Z " fill="#283077" transform="translate(1580,730)"/>
<path d="M0 0 C0 5.61 0 11.22 0 17 C5.28 17 10.56 17 16 17 C16 20.3 16 23.6 16 27 C10.72 27 5.44 27 0 27 C0.09708877 32.03584129 0.19991305 37.07088889 0.31738281 42.10620117 C0.35559285 43.81804314 0.39045952 45.52996322 0.421875 47.24194336 C0.46769938 49.70715183 0.52566413 52.17182633 0.5859375 54.63671875 C0.59748871 55.39836838 0.60903992 56.16001801 0.62094116 56.94474792 C0.73342102 61.02267011 1.00907352 64.39683315 3 68 C7.2024454 70.80163026 10.00104935 70.14489712 15 70 C15.495 74.95 15.495 74.95 16 80 C9.53983202 81.61504199 2.85510811 81.96869739 -3.5 79.8125 C-9.50192651 75.46110328 -10.86565605 71.02621885 -12 64 C-12.231171 61.00236781 -12.23597429 58.03240854 -12.1953125 55.02734375 C-12.1924826 54.21882462 -12.18965271 53.41030548 -12.18673706 52.57728577 C-12.17566777 50.03053082 -12.15058958 47.4841461 -12.125 44.9375 C-12.11495302 43.19596867 -12.1058302 41.45443175 -12.09765625 39.71289062 C-12.07577213 35.47512083 -12.04133646 31.23762287 -12 27 C-14.97 27 -17.94 27 -21 27 C-21 23.7 -21 20.4 -21 17 C-18.03 17 -15.06 17 -12 17 C-12 12.38 -12 7.76 -12 3 C-3.375 0 -3.375 0 0 0 Z " fill="#283077" transform="translate(1822,711)"/>
<path d="M0 0 C-0.875 7.75 -0.875 7.75 -2 10 C-3.11375 9.67 -4.2275 9.34 -5.375 9 C-13.00357799 7.14330906 -19.90681679 7.09232382 -27.0234375 10.67578125 C-32.03410176 14.03272825 -34.60891126 19.00415502 -35.78125 24.83203125 C-36.5219791 32.17318575 -35.22568139 38.89466769 -31 45 C-26.47747562 49.40656222 -21.9842768 51.28645023 -15.6875 51.25 C-10.82302923 51.17090291 -6.64698539 50.40286351 -2 49 C-0.38010938 52.54351073 0.10414268 55.12719419 0 59 C-10.99004726 63.34430103 -22.82084315 63.80717206 -33.76953125 59.1171875 C-41.48995915 55.2502131 -45.14101684 48.47845943 -48.375 40.6875 C-50.21770352 29.81554926 -49.73841433 19.01242148 -43.3125 9.75 C-32.12300762 -3.82548708 -15.99631484 -5.82945964 0 0 Z " fill="#283077" transform="translate(1794,730)"/>
<path d="M0 0 C-0.875 7.75 -0.875 7.75 -2 10 C-3.11375 9.67 -4.2275 9.34 -5.375 9 C-13.00357799 7.14330906 -19.90681679 7.09232382 -27.0234375 10.67578125 C-32.03410176 14.03272825 -34.60891126 19.00415502 -35.78125 24.83203125 C-36.5219791 32.17318575 -35.22568139 38.89466769 -31 45 C-26.47747562 49.40656222 -21.9842768 51.28645023 -15.6875 51.25 C-10.82302923 51.17090291 -6.64698539 50.40286351 -2 49 C-0.38010938 52.54351073 0.10414268 55.12719419 0 59 C-9.75100999 62.85451689 -21.92987456 64.24242276 -31.875 60.23046875 C-39.73276989 55.68047332 -45.34921041 49.71926389 -48 41 C-48.18949219 40.37996094 -48.37898438 39.75992188 -48.57421875 39.12109375 C-50.42047226 29.92370239 -49.43567702 19.98300142 -44.74609375 11.81640625 C-39.41474594 4.13171145 -32.97564988 -0.4158713 -23.859375 -2.53125 C-15.2909363 -3.93591208 -8.12371309 -2.96048547 0 0 Z " fill="#283077" transform="translate(2700,730)"/>
<path d="M0 0 C3.96 0 7.92 0 12 0 C12 30.03 12 60.06 12 91 C8.04 91 4.08 91 0 91 C0 60.97 0 30.94 0 0 Z " fill="#283077" transform="translate(2742,700)"/>
<path d="M0 0 C3.96 0 7.92 0 12 0 C12 28.71 12 57.42 12 87 C8.04 87 4.08 87 0 87 C0 58.29 0 29.58 0 0 Z " fill="#283077" transform="translate(1306,704)"/>
<path d="M0 0 C0 3.96 0 7.92 0 12 C-2.041875 12.12375 -2.041875 12.12375 -4.125 12.25 C-8.6937154 12.78158009 -11.51540575 13.84727187 -15 17 C-17.96745714 22.56159618 -18.46418624 27.19387496 -18.51171875 33.43359375 C-18.52966995 34.31153091 -18.54762115 35.18946808 -18.56611633 36.0940094 C-18.61993679 38.87512529 -18.65402364 41.65607237 -18.6875 44.4375 C-18.72069808 46.33270564 -18.75519003 48.22788908 -18.79101562 50.12304688 C-18.87564675 54.74857555 -18.942592 59.37405662 -19 64 C-23.29 64 -27.58 64 -32 64 C-32 43.21 -32 22.42 -32 1 C-28.37 1 -24.74 1 -21 1 C-20.67 3.64 -20.34 6.28 -20 9 C-19.505 8.2575 -19.01 7.515 -18.5 6.75 C-13.18063287 0.89869615 -7.72038797 -0.55145628 0 0 Z " fill="#283077" transform="translate(2439,727)"/>
<path d="M0 0 C0 3.96 0 7.92 0 12 C-2.041875 12.12375 -2.041875 12.12375 -4.125 12.25 C-8.6937154 12.78158009 -11.51540575 13.84727187 -15 17 C-17.96745714 22.56159618 -18.46418624 27.19387496 -18.51171875 33.43359375 C-18.52966995 34.31153091 -18.54762115 35.18946808 -18.56611633 36.0940094 C-18.61993679 38.87512529 -18.65402364 41.65607237 -18.6875 44.4375 C-18.72069808 46.33270564 -18.75519003 48.22788908 -18.79101562 50.12304688 C-18.87564675 54.74857555 -18.942592 59.37405662 -19 64 C-23.29 64 -27.58 64 -32 64 C-32 43.21 -32 22.42 -32 1 C-28.37 1 -24.74 1 -21 1 C-20.67 3.64 -20.34 6.28 -20 9 C-19.505 8.2575 -19.01 7.515 -18.5 6.75 C-13.18063287 0.89869615 -7.72038797 -0.55145628 0 0 Z " fill="#283077" transform="translate(1476,727)"/>
<path d="M0 0 C0 3.96 0 7.92 0 12 C-2.041875 12.12375 -2.041875 12.12375 -4.125 12.25 C-8.6837952 12.77325794 -11.48992373 13.90778995 -15 17 C-18.84039657 23.224091 -19.15927927 29.2024286 -19.31640625 36.36328125 C-19.33718735 37.15526413 -19.35796844 37.94724701 -19.37937927 38.76322937 C-19.44447804 41.27956928 -19.50357423 43.79600872 -19.5625 46.3125 C-19.605723 48.02409861 -19.64933848 49.73568735 -19.69335938 51.44726562 C-19.80011847 55.63140984 -19.90149635 59.81565362 -20 64 C-23.96 64 -27.92 64 -32 64 C-32 43.21 -32 22.42 -32 1 C-28.37 1 -24.74 1 -21 1 C-20.67 3.64 -20.34 6.28 -20 9 C-19.319375 8.071875 -18.63875 7.14375 -17.9375 6.1875 C-13.00196413 0.32308519 -7.24025267 -0.38106593 0 0 Z " fill="#283077" transform="translate(1670,727)"/>
<path d="M0 0 C0 3.96 0 7.92 0 12 C-2.041875 12.12375 -2.041875 12.12375 -4.125 12.25 C-8.6837952 12.77325794 -11.48992373 13.90778995 -15 17 C-18.84039657 23.224091 -19.15927927 29.2024286 -19.31640625 36.36328125 C-19.33718735 37.15526413 -19.35796844 37.94724701 -19.37937927 38.76322937 C-19.44447804 41.27956928 -19.50357423 43.79600872 -19.5625 46.3125 C-19.605723 48.02409861 -19.64933848 49.73568735 -19.69335938 51.44726562 C-19.80011847 55.63140984 -19.90149635 59.81565362 -20 64 C-23.96 64 -27.92 64 -32 64 C-32 43.21 -32 22.42 -32 1 C-28.37 1 -24.74 1 -21 1 C-20.67 3.64 -20.34 6.28 -20 9 C-19.319375 8.071875 -18.63875 7.14375 -17.9375 6.1875 C-13.00196413 0.32308519 -7.24025267 -0.38106593 0 0 Z " fill="#283077" transform="translate(1178,727)"/>
<path d="M0 0 C0 3.96 0 7.92 0 12 C-1.381875 12.103125 -2.76375 12.20625 -4.1875 12.3125 C-8.18260469 12.78840589 -10.9063122 13.25987652 -14 16 C-17.78453552 21.68859952 -18.59947791 26.81582899 -18.609375 33.53125 C-18.62591125 34.40777222 -18.64244751 35.28429443 -18.65948486 36.18737793 C-18.70766503 38.95832535 -18.72926847 41.72872523 -18.75 44.5 C-18.77818484 46.39065211 -18.80811576 48.28127904 -18.83984375 50.171875 C-18.91341555 54.78120485 -18.96317268 59.39023608 -19 64 C-22.96 64 -26.92 64 -31 64 C-31.33 43.21 -31.66 22.42 -32 1 C-28.37 1 -24.74 1 -21 1 C-20.67 3.64 -20.34 6.28 -20 9 C-19.505 8.2575 -19.01 7.515 -18.5 6.75 C-13.18063287 0.89869615 -7.72038797 -0.55145628 0 0 Z " fill="#283077" transform="translate(1951,727)"/>
<path d="M0 0 C4.29 0 8.58 0 13 0 C13 20.79 13 41.58 13 63 C8.71 63 4.42 63 0 63 C0 42.21 0 21.42 0 0 Z " fill="#283077" transform="translate(982,728)"/>
<path d="M0 0 C3.96 0 7.92 0 12 0 C12 20.79 12 41.58 12 63 C8.04 63 4.08 63 0 63 C0 42.21 0 21.42 0 0 Z " fill="#283077" transform="translate(2772,728)"/>
<path d="M0 0 C3.96 0 7.92 0 12 0 C12 20.79 12 41.58 12 63 C8.04 63 4.08 63 0 63 C0 42.21 0 21.42 0 0 Z " fill="#283077" transform="translate(2712,728)"/>
<path d="M0 0 C3.96 0 7.92 0 12 0 C12 20.79 12 41.58 12 63 C8.04 63 4.08 63 0 63 C0 42.21 0 21.42 0 0 Z " fill="#283077" transform="translate(2258,728)"/>
<path d="M0 0 C3.96 0 7.92 0 12 0 C12 20.79 12 41.58 12 63 C8.04 63 4.08 63 0 63 C0 42.21 0 21.42 0 0 Z " fill="#283077" transform="translate(1188,728)"/>
<path d="M0 0 C3.96 0 7.92 0 12 0 C12 20.79 12 41.58 12 63 C8.04 63 4.08 63 0 63 C0 42.21 0 21.42 0 0 Z " fill="#283077" transform="translate(454,728)"/>
<path d="M0 0 C3.96 0 7.92 0 12 0 C12 20.79 12 41.58 12 63 C8.04 63 4.08 63 0 63 C0 42.21 0 21.42 0 0 Z " fill="#283077" transform="translate(152,728)"/>
<path d="M0 0 C3.375 1.0625 3.375 1.0625 5.3125 2.75 C6.71317538 5.79852877 6.8592732 7.74176952 6.375 11.0625 C4.8125 13.4375 4.8125 13.4375 2.375 15.0625 C-1.59987617 15.63033945 -3.68989221 15.68590519 -7.0625 13.4375 C-9.12291771 10.30566508 -9.3017545 8.74705227 -8.625 5.0625 C-5.92665364 1.21940065 -4.75860157 0.08204485 0 0 Z " fill="#283077" transform="translate(989.625,703.9375)"/>
<path d="M0 0 C3.375 1.0625 3.375 1.0625 5.3125 2.75 C6.71317538 5.79852877 6.8592732 7.74176952 6.375 11.0625 C4.8125 13.4375 4.8125 13.4375 2.375 15.0625 C-1.59987617 15.63033945 -3.68989221 15.68590519 -7.0625 13.4375 C-9.12291771 10.30566508 -9.3017545 8.74705227 -8.625 5.0625 C-5.92665364 1.21940065 -4.75860157 0.08204485 0 0 Z " fill="#283077" transform="translate(158.625,703.9375)"/>
<path d="M0 0 C1.9375 1.125 1.9375 1.125 3 3 C3.49573337 6.89504791 3.58016848 9.09493717 1.4375 12.4375 C-1.96719488 14.61999672 -4.03430012 14.63734462 -8 14 C-10.5 11.9375 -10.5 11.9375 -12 9 C-12 5.19715329 -11.7968187 2.98069994 -9.375 0 C-5.91616747 -1.45635054 -3.58701629 -0.91305869 0 0 Z " fill="#283077" transform="translate(2782,705)"/>
<path d="M0 0 C2.59393856 2.8371203 3.02858292 4.28542702 2.875 8.125 C1.55319149 12.46808511 1.55319149 12.46808511 -1 14 C-4.89504791 14.49573337 -7.09493717 14.58016848 -10.4375 12.4375 C-12.61999672 9.03280512 -12.63734462 6.96569988 -12 3 C-8.35161233 -1.42228808 -5.36004496 -1.68742156 0 0 Z " fill="#283077" transform="translate(2723,705)"/>
<path d="M0 0 C2.59393856 2.8371203 3.02858292 4.28542702 2.875 8.125 C1.55319149 12.46808511 1.55319149 12.46808511 -1 14 C-4.89504791 14.49573337 -7.09493717 14.58016848 -10.4375 12.4375 C-12.61999672 9.03280512 -12.63734462 6.96569988 -12 3 C-8.35161233 -1.42228808 -5.36004496 -1.68742156 0 0 Z " fill="#283077" transform="translate(2269,705)"/>
<path d="M0 0 C2.59393856 2.8371203 3.02858292 4.28542702 2.875 8.125 C1.55319149 12.46808511 1.55319149 12.46808511 -1 14 C-4.89504791 14.49573337 -7.09493717 14.58016848 -10.4375 12.4375 C-12.61999672 9.03280512 -12.63734462 6.96569988 -12 3 C-8.35161233 -1.42228808 -5.36004496 -1.68742156 0 0 Z " fill="#283077" transform="translate(1199,705)"/>
<path d="M0 0 C2.52122604 3.78183906 2.73098831 6.55855205 2 11 C0.4375 13 0.4375 13 -2 14 C-8.0023753 14.63182898 -8.0023753 14.63182898 -10.875 12.8125 C-12.33551279 10.45945162 -12.80213778 8.7700711 -13 6 C-12.25671516 3.09443198 -11.64811344 1.52809243 -9.3125 -0.375 C-5.93719951 -1.28724338 -3.36911971 -0.81108437 0 0 Z " fill="#283077" transform="translate(465,705)"/>
</svg>
