<?xml version="1.0" encoding="UTF-8"?>
<svg version="1.1" xmlns="http://www.w3.org/2000/svg" width="297" height="92">
<path d="M0 0 C1.175625 0.63615234 1.175625 0.63615234 2.375 1.28515625 C13.02633711 7.74432858 19.20563338 17.14916044 23.3125 28.6875 C26.02149276 41.73274667 24.1344542 55.14226289 16.8125 66.3125 C9.60813354 75.73477121 0.7603617 82.45765861 -11 85 C-24.68956166 86.14540476 -37.14649261 85.63413181 -48.16015625 76.625 C-48.76730469 76.08875 -49.37445313 75.5525 -50 75 C-50.61746094 74.46375 -51.23492187 73.9275 -51.87109375 73.375 C-59.61336656 66.18217881 -64.83068324 56.02684727 -65.43359375 45.38671875 C-65.45711517 43.82048857 -65.45795206 42.25377327 -65.4375 40.6875 C-65.42920166 39.86008301 -65.42090332 39.03266602 -65.41235352 38.18017578 C-65.09958949 26.76261929 -61.67462235 18.43883262 -54 10 C-53.18015625 9.04287109 -53.18015625 9.04287109 -52.34375 8.06640625 C-39.87118338 -5.61223403 -16.14339985 -8.75343134 0 0 Z " fill="#FCFCFD" transform="translate(65,6)"/>
<path d="M0 0 C1.175625 0.63615234 1.175625 0.63615234 2.375 1.28515625 C13.02633711 7.74432858 19.20563338 17.14916044 23.3125 28.6875 C26.02149276 41.73274667 24.1344542 55.14226289 16.8125 66.3125 C9.60813354 75.73477121 0.7603617 82.45765861 -11 85 C-24.68956166 86.14540476 -37.14649261 85.63413181 -48.16015625 76.625 C-48.76730469 76.08875 -49.37445313 75.5525 -50 75 C-50.61746094 74.46375 -51.23492187 73.9275 -51.87109375 73.375 C-59.61336656 66.18217881 -64.83068324 56.02684727 -65.43359375 45.38671875 C-65.45711517 43.82048857 -65.45795206 42.25377327 -65.4375 40.6875 C-65.42920166 39.86008301 -65.42090332 39.03266602 -65.41235352 38.18017578 C-65.09958949 26.76261929 -61.67462235 18.43883262 -54 10 C-53.18015625 9.04287109 -53.18015625 9.04287109 -52.34375 8.06640625 C-39.87118338 -5.61223403 -16.14339985 -8.75343134 0 0 Z M-24 -3 C-23.34 -1.35 -22.68 0.3 -22 2 C-23.98 2.66 -25.96 3.32 -28 4 C-28 4.33 -28 4.66 -28 5 C-26.37581255 5.08090971 -24.75048255 5.13914995 -23.125 5.1875 C-22.22007813 5.22230469 -21.31515625 5.25710938 -20.3828125 5.29296875 C-19.59648438 5.19628906 -18.81015625 5.09960938 -18 5 C-15.7226499 2.18490007 -15.7226499 2.18490007 -16 -1 C-15.34 -0.34 -14.68 0.32 -14 1 C-14.33 1.66 -14.66 2.32 -15 3 C-14.01 3.33 -13.02 3.66 -12 4 C-11.67 2.68 -11.34 1.36 -11 0 C-9.5393715 2.64738916 -9 3.89448334 -9 7 C-10 7 -10 7 -12.5 6.5 C-22.87042532 5.01851067 -32.15145003 5.92233446 -40.796875 12.1796875 C-48.98237636 18.94288543 -54.13124984 26.29109056 -55.33984375 37.015625 C-55.63689555 46.28364105 -53.83001169 54.62674992 -48 62 C-46.37347684 63.70586575 -44.70993434 65.3777546 -43 67 C-42 68 -41 69 -40 70 C-40.99 70.495 -40.99 70.495 -42 71 C-41.01 71.33 -40.02 71.66 -39 72 C-39 72.66 -39 73.32 -39 74 C-35.6504936 76.02882281 -35.6504936 76.02882281 -32 77 C-31.67 78.65 -31.34 80.3 -31 82 C-31.99 82.495 -31.99 82.495 -33 83 C-22.83762619 86.18870403 -10.39810143 84.53194365 -1 80 C10.72291234 73.33733759 17.71722235 64.44675595 21.75 51.61328125 C24.54442313 40.49380587 23.03699534 29.26608906 17.625 19.125 C15.40891865 15.42704055 12.8765605 12.20531027 10 9 C9.67 9.66 9.34 10.32 9 11 C9.89163577 13.11683841 9.89163577 13.11683841 11 15 C10.01 15.66 9.02 16.32 8 17 C7.67 15.35 7.34 13.7 7 12 C5.02 12.99 5.02 12.99 3 14 C3.495 14.99 3.495 14.99 4 16 C3.01 15.01 2.02 14.02 1 13 C1.33 12.01 1.66 11.02 2 10 C-0.81509993 7.7226499 -0.81509993 7.7226499 -4 8 C-4 7.34 -4 6.68 -4 6 C-4.66 5.67 -5.32 5.34 -6 5 C-4.68 4.01 -3.36 3.02 -2 2 C-1.505 3.98 -1.505 3.98 -1 6 C-0.01 5.01 0.98 4.02 2 3 C-6.7862845 -1.70123274 -14.02398259 -3.32471666 -24 -3 Z " fill="#D9E0E9" transform="translate(65,6)"/>
<path d="M0 0 C3.75375 -0.061875 7.5075 -0.12375 11.375 -0.1875 C13.11789307 -0.22846802 13.11789307 -0.22846802 14.89599609 -0.27026367 C22.90553313 -0.33346467 30.58576808 0.16691394 36.9375 5.4375 C37.9584375 6.7059375 37.9584375 6.7059375 39 8 C39.5775 8.70125 40.155 9.4025 40.75 10.125 C44.52042822 15.78064233 43.59624459 23.49551354 43 30 C41.02619427 35.71723039 37.37114668 39.26176836 32 42 C25.11616356 44.20282766 18.68473491 44.23585132 11.5 44.125 C7.705 44.08375 3.91 44.0425 0 44 C0 29.48 0 14.96 0 0 Z M12 9 C12 17.58 12 26.16 12 35 C22.1914027 35.35695584 22.1914027 35.35695584 29.8125 30.3125 C32.36937524 25.3333219 32.42989406 21.3801862 30.8125 16.1875 C28.41011735 11.96262018 26.55107575 10.51702525 22 9 C18.7 9 15.4 9 12 9 Z " fill="#B80A2D" transform="translate(253,17)"/>
<path d="M0 0 C4.29 0 8.58 0 13 0 C18.00473656 9.6222872 22.60591783 19.39601928 27 29.3125 C27.49282471 30.41585693 27.98564941 31.51921387 28.4934082 32.65600586 C28.9493335 33.69378174 29.40525879 34.73155762 29.875 35.80078125 C30.28492188 36.73059814 30.69484375 37.66041504 31.1171875 38.6184082 C32 41 32 41 32 44 C28.04 44 24.08 44 20 44 C18.68 41.36 17.36 38.72 16 36 C10.06 35.67 4.12 35.34 -2 35 C-2.495 37.475 -2.495 37.475 -3 40 C-3.66 41.32 -4.32 42.64 -5 44 C-8.96 44 -12.92 44 -17 44 C-14.42533037 34.44787995 -10.61955989 25.48424222 -6.8125 16.375 C-6.15124584 14.78273759 -5.4904349 13.19029104 -4.83007812 11.59765625 C-3.22515434 7.72962881 -1.61425258 3.86414299 0 0 Z M6 14 C5.32694982 15.60149886 4.66177773 17.20631029 4 18.8125 C3.62875 19.70582031 3.2575 20.59914063 2.875 21.51953125 C1.83366763 24.0331433 1.83366763 24.0331433 2 27 C5.63 27 9.26 27 13 27 C11.35 22.71 9.7 18.42 8 14 C7.34 14 6.68 14 6 14 Z " fill="#B80A2D" transform="translate(198,17)"/>
<path d="M0 0 C3.63 0 7.26 0 11 0 C11.03738281 1.80726562 11.07476562 3.61453125 11.11328125 5.4765625 C11.17894987 7.85939544 11.2453969 10.24220702 11.3125 12.625 C11.33505859 13.81480469 11.35761719 15.00460938 11.38085938 16.23046875 C11.52887889 24.61218417 11.52887889 24.61218417 15 32 C18.45031261 33.72515631 22.22716304 33.49677924 26 33 C29.03215675 30.80168636 29.81654398 29.55036806 31 26 C31.14986411 24.0093556 31.24828038 22.01464609 31.31640625 20.01953125 C31.35830078 18.85615234 31.40019531 17.69277344 31.44335938 16.49414062 C31.48267578 15.27919922 31.52199219 14.06425781 31.5625 12.8125 C31.60568359 11.58595703 31.64886719 10.35941406 31.69335938 9.09570312 C31.7995309 6.06391619 31.90157952 3.03204685 32 0 C35.63 0 39.26 0 43 0 C43.09965569 4.26832981 43.17183391 8.53602469 43.21972656 12.80517578 C43.23971295 14.25418917 43.26691197 15.70312325 43.30175781 17.15185547 C43.65565035 32.25473998 43.65565035 32.25473998 39 39 C33.50169855 43.37619911 29.0984741 44.20001114 22.25 44.25 C21.5590625 44.270625 20.868125 44.29125 20.15625 44.3125 C13.74788253 44.36068321 9.17741775 42.83870833 4.1875 38.625 C0.19153285 33.82983942 -0.24603342 29.89306027 -0.1953125 23.73046875 C-0.1924826 23.04946609 -0.18965271 22.36846344 -0.18673706 21.66682434 C-0.17560525 19.50686545 -0.15051457 17.34733206 -0.125 15.1875 C-0.11496111 13.71680289 -0.10583685 12.24609924 -0.09765625 10.77539062 C-0.07568913 7.18345714 -0.0412082 3.59177015 0 0 Z " fill="#002D6B" transform="translate(98,17)"/>
<path d="M0 0 C1.90625 0.8203125 1.90625 0.8203125 4.46875 2.3203125 C4.46875 5.2903125 4.46875 8.2603125 4.46875 11.3203125 C2.05613228 10.85335423 -0.34172368 10.36752546 -2.7265625 9.7734375 C-3.50773437 9.58265625 -4.28890625 9.391875 -5.09375 9.1953125 C-5.83753906 9.00710937 -6.58132812 8.81890625 -7.34765625 8.625 C-9.71297125 8.29495605 -11.27530968 8.59390995 -13.53125 9.3203125 C-13.53125 10.3103125 -13.53125 11.3003125 -13.53125 12.3203125 C-12.41105469 12.86300781 -11.29085937 13.40570313 -10.13671875 13.96484375 C-8.66390508 14.68717912 -7.19125746 15.40985312 -5.71875 16.1328125 C-4.98076172 16.48923828 -4.24277344 16.84566406 -3.48242188 17.21289062 C-2.41411133 17.73979492 -2.41411133 17.73979492 -1.32421875 18.27734375 C-0.6696167 18.59678955 -0.01501465 18.91623535 0.65942383 19.24536133 C3.90729559 21.17497668 5.26560563 22.71087938 6.46875 26.3203125 C6.81406267 31.67265892 6.94449585 34.97563018 3.46875 39.3203125 C-2.76952269 44.77880111 -10.7169534 43.81541049 -18.53125 43.3203125 C-21.2587508 42.59968249 -23.08648007 41.75139733 -25.53125 40.3203125 C-25.53125 36.6903125 -25.53125 33.0603125 -25.53125 29.3203125 C-24.17 29.9596875 -22.80875 30.5990625 -21.40625 31.2578125 C-16.3950937 33.47625218 -11.93011391 35.18915001 -6.53125 33.3203125 C-6.55021734 31.39517629 -6.55021734 31.39517629 -7.53125 29.3203125 C-10.35442598 27.65070528 -10.35442598 27.65070528 -13.78125 26.3203125 C-24.19982143 21.98316964 -24.19982143 21.98316964 -26.53125 17.3203125 C-26.94779299 12.79441265 -27.04198318 8.65389359 -25.40625 4.3828125 C-19.19479625 -2.44978662 -8.39425161 -2.25401201 0 0 Z " fill="#002D6B" transform="translate(173.53125,17.6796875)"/>
<path d="M0 0 C8.46279917 7.73741638 13.22125885 17.52215041 14.16015625 28.94921875 C14.67537146 41.426387 10.14455579 52.21323897 2.3125 61.6875 C-5.22113185 69.7865076 -14.96394134 74.7309065 -26.046875 75.24609375 C-27.48937777 75.2790038 -28.93216675 75.30111862 -30.375 75.3125 C-31.41068115 75.32095947 -31.41068115 75.32095947 -32.46728516 75.32958984 C-36.12981681 75.27666568 -38.88703381 75.00347311 -42 73 C-41.34 73 -40.68 73 -40 73 C-39.67 71.35 -39.34 69.7 -39 68 C-37 68 -35 68 -33 68 C-32.67 69.32 -32.34 70.64 -32 72 C-31.34 70.68 -30.68 69.36 -30 68 C-31.15628906 67.81824219 -31.15628906 67.81824219 -32.3359375 67.6328125 C-33.33882812 67.46523437 -34.34171875 67.29765625 -35.375 67.125 C-36.37273438 66.96257812 -37.37046875 66.80015625 -38.3984375 66.6328125 C-41 66 -41 66 -43 64 C-42.0925 64.165 -41.185 64.33 -40.25 64.5 C-28.82794321 66.0428988 -19.83579193 64.74033898 -9.6875 59.1875 C-0.93742932 52.06534945 3.14778427 43.18127102 4.3125 32 C4.21596501 24.71160798 1.56825789 16.63874884 -3 11 C-3.70710678 9.35008418 -4.37943989 7.68437744 -5 6 C-5.495 5.01 -5.495 5.01 -6 4 C-4.68 3.67 -3.36 3.34 -2 3 C-1.505 5.475 -1.505 5.475 -1 8 C-0.01 7.34 0.98 6.68 2 6 C1.34 4.02 0.68 2.04 0 0 Z " fill="#ACBACF" transform="translate(74,15)"/>
<path d="M0 0 C13.53 0 27.06 0 41 0 C41 8 41 8 38.8125 10.9375 C36.03113751 12.97716583 34.39398034 13.7090874 31 14 C31 11.69 31 9.38 31 7 C30.34 7 29.68 7 29 7 C29 9.97 29 12.94 29 16 C28.2575 15.938125 27.515 15.87625 26.75 15.8125 C23.54616994 16.03094296 22.35968744 16.90250005 20 19 C19.59652344 18.5153125 19.19304688 18.030625 18.77734375 17.53125 C16.5843717 15.64192024 15.41627642 15.61549854 12.5625 15.5 C8.79330917 15.21241563 6.84602246 14.61834067 4 12 C3.34 12 2.68 12 2 12 C0 9 0 9 0 0 Z " fill="#B6859C" transform="translate(24,59)"/>
<path d="M0 0 C1.175625 0.63615234 1.175625 0.63615234 2.375 1.28515625 C13.02633711 7.74432858 19.20563338 17.14916044 23.3125 28.6875 C26.02149276 41.73274667 24.1344542 55.14226289 16.8125 66.3125 C9.60813354 75.73477121 0.7603617 82.45765861 -11 85 C-24.68956166 86.14540476 -37.14649261 85.63413181 -48.16015625 76.625 C-48.76730469 76.08875 -49.37445313 75.5525 -50 75 C-50.61746094 74.46375 -51.23492187 73.9275 -51.87109375 73.375 C-59.61336656 66.18217881 -64.83068324 56.02684727 -65.43359375 45.38671875 C-65.45711517 43.82048857 -65.45795206 42.25377327 -65.4375 40.6875 C-65.42920166 39.86008301 -65.42090332 39.03266602 -65.41235352 38.18017578 C-65.09958949 26.76261929 -61.67462235 18.43883262 -54 10 C-53.18015625 9.04287109 -53.18015625 9.04287109 -52.34375 8.06640625 C-39.87118338 -5.61223403 -16.14339985 -8.75343134 0 0 Z M-49 7 C-49.61617187 7.47824219 -50.23234375 7.95648438 -50.8671875 8.44921875 C-57.03230537 13.88822274 -62.71185656 23.75274019 -64 32 C-64.85502442 46.8971562 -62.68341717 58.09573497 -53.32421875 70.16015625 C-46.46305088 77.78530855 -35.79726379 83.53307084 -25.53125 84.23828125 C-11.00570803 84.64126655 0.11941319 81.18679096 11 71.15625 C18.81746594 62.93443238 22.82781543 51.93622097 23.3125 40.6875 C22.96826549 28.35960145 18.11371701 18.04099895 10 9 C9.67 9.66 9.34 10.32 9 11 C9.89163577 13.11683841 9.89163577 13.11683841 11 15 C10.01 15.66 9.02 16.32 8 17 C7.67 15.35 7.34 13.7 7 12 C5.68 12.66 4.36 13.32 3 14 C3.495 14.99 3.495 14.99 4 16 C3.01 15.01 2.02 14.02 1 13 C1.33 12.01 1.66 11.02 2 10 C-0.81509993 7.7226499 -0.81509993 7.7226499 -4 8 C-4 7.34 -4 6.68 -4 6 C-4.66 5.67 -5.32 5.34 -6 5 C-4.68 4.01 -3.36 3.02 -2 2 C-1.505 3.98 -1.505 3.98 -1 6 C0.485 4.515 0.485 4.515 2 3 C0.81679424 2.36690809 -0.37187848 1.74403282 -1.5625 1.125 C-2.22378906 0.77695313 -2.88507812 0.42890625 -3.56640625 0.0703125 C-19.40135578 -6.89401522 -35.76243077 -3.34342386 -49 7 Z " fill="#1E4479" transform="translate(65,6)"/>
<path d="M0 0 C13.53 0 27.06 0 41 0 C41 3.96 41 7.92 41 12 C27.47 12 13.94 12 0 12 C0 8.04 0 4.08 0 0 Z " fill="#20487E" transform="translate(24,22)"/>
<path d="M0 0 C3.63 0 7.26 0 11 0 C11 14.52 11 29.04 11 44 C7.37 44 3.74 44 0 44 C0 29.48 0 14.96 0 0 Z " fill="#B80A2D" transform="translate(234,17)"/>
<path d="M0 0 C0.99 1.98 1.98 3.96 3 6 C1.68 6.33 0.36 6.66 -1 7 C1.31 7 3.62 7 6 7 C6.66 5.35 7.32 3.7 8 2 C9.32 2.33 10.64 2.66 12 3 C12 3.99 12 4.98 12 6 C12.33 5.01 12.66 4.02 13 3 C13.99 3.33 14.98 3.66 16 4 C16 7 16 7 15 10 C16.32 10.66 17.64 11.32 19 12 C18.31035156 11.855625 17.62070312 11.71125 16.91015625 11.5625 C5.91554041 9.39072403 -4.74128943 8.46024493 -14.625 14.625 C-20.50404383 18.81844385 -24.73114135 24.24854373 -29 30 C-29.33 29.34 -29.66 28.68 -30 28 C-30.99 28.33 -31.98 28.66 -33 29 C-33.66 28.67 -34.32 28.34 -35 28 C-35 27.34 -35 26.68 -35 26 C-33.68 26.33 -32.36 26.66 -31 27 C-31 26.34 -31 25.68 -31 25 C-32.32 24.34 -33.64 23.68 -35 23 C-29.21817353 11.43634707 -20.5993019 5.92827482 -9 1 C-5.90796584 0.05521178 -3.23577955 -0.08988277 0 0 Z " fill="#DAE1EA" transform="translate(41,3)"/>
<path d="M0 0 C4.95 0 9.9 0 15 0 C15 0.66 15 1.32 15 2 C13.68 2 12.36 2 11 2 C11 2.66 11 3.32 11 4 C13.45685425 3.57640444 14.6964912 3.34489637 16.375 1.4375 C18 0 18 0 21 -0.1875 C21.99 -0.125625 22.98 -0.06375 24 0 C24.99 0 25.98 0 27 0 C30.33333333 0 33.66666667 0 37 0 C37 2.97 37 5.94 37 9 C38.65 9 40.3 9 42 9 C42 6.03 42 3.06 42 0 C44.31 0 46.62 0 49 0 C49 0.66 49 1.32 49 2 C47.68 2 46.36 2 45 2 C45 2.66 45 3.32 45 4 C46.32 4 47.64 4 49 4 C49 4.99 49 5.98 49 7 C47.68 7 46.36 7 45 7 C45 7.66 45 8.32 45 9 C46.32 9 47.64 9 49 9 C49 9.66 49 10.32 49 11 C44.38 11 39.76 11 35 11 C34.505 8.525 34.505 8.525 34 6 C32.68 6.33 31.36 6.66 30 7 C30 8.32 30 9.64 30 11 C29.38125 10.814375 28.7625 10.62875 28.125 10.4375 C25.95839822 9.76313824 25.95839822 9.76313824 24 11 C21.0625 11.25 21.0625 11.25 18 11 C16.375 9.5625 16.375 9.5625 15 8 C12.89667109 7.28552357 12.89667109 7.28552357 11 7 C11 7.66 11 8.32 11 9 C12.32 9 13.64 9 15 9 C15 9.66 15 10.32 15 11 C12.69 11 10.38 11 8 11 C7.67 9.35 7.34 7.7 7 6 C5.68 6.33 4.36 6.66 3 7 C3 8.32 3 9.64 3 11 C2.01 11 1.02 11 0 11 C0 7.37 0 3.74 0 0 Z M3 2 C3 2.66 3 3.32 3 4 C3.66 4 4.32 4 5 4 C5 3.34 5 2.68 5 2 C4.34 2 3.68 2 3 2 Z M20 2 C19.34 2.66 18.68 3.32 18 4 C18 5.32 18 6.64 18 8 C21.04913228 9.01111093 21.04913228 9.01111093 24 8 C24 6.35 24 4.7 24 3 C22.10820797 2.3185177 22.10820797 2.3185177 20 2 Z M30 2 C30 2.66 30 3.32 30 4 C30.66 4 31.32 4 32 4 C32 3.34 32 2.68 32 2 C31.34 2 30.68 2 30 2 Z " fill="#002D6A" transform="translate(247,69)"/>
<path d="M0 0 C0.33 0.66 0.66 1.32 1 2 C1.66 2 2.32 2 3 2 C3 1.34 3 0.68 3 0 C4.175625 0.144375 5.35125 0.28875 6.5625 0.4375 C13.35552324 1.19953786 20.17916837 1.57762966 27 2 C27 2.33 27 2.66 27 3 C21.06 3.495 21.06 3.495 15 4 C14.67 5.32 14.34 6.64 14 8 C15.03060547 7.98259766 15.03060547 7.98259766 16.08203125 7.96484375 C16.98308594 7.95582031 17.88414063 7.94679688 18.8125 7.9375 C19.70582031 7.92589844 20.59914062 7.91429687 21.51953125 7.90234375 C24 8 24 8 27 9 C27 9.99 27 10.98 27 12 C25.57107422 11.93039063 25.57107422 11.93039063 24.11328125 11.859375 C22.85902344 11.82328125 21.60476562 11.7871875 20.3125 11.75 C19.07113281 11.70359375 17.82976563 11.6571875 16.55078125 11.609375 C12.41957132 12.06385354 11.02020177 13.26111755 8 16 C3.22083929 16.83115838 0.9312827 15.42877643 -3.0546875 12.890625 C-6.56361113 11.28412984 -10.2264617 11.69195606 -14 12 C-14 11.01 -14 10.02 -14 9 C-4.1619256 5.74398249 -4.1619256 5.74398249 0.6875 6.8125 C1.450625 7.204375 2.21375 7.59625 3 8 C3 7.34 3 6.68 3 6 C5 6 5 6 6.625 7.5 C7.305625 8.2425 7.305625 8.2425 8 9 C6.61017909 6.36000504 6.61017909 6.36000504 4 4 C0.92749044 3.22889826 -2.09309232 3.20969701 -5.25 3.1875 C-6.09046875 3.16236328 -6.9309375 3.13722656 -7.796875 3.11132812 C-9.86408228 3.05260065 -11.93209111 3.02340226 -14 3 C-14 2.67 -14 2.34 -14 2 C-13.15695313 1.93941406 -12.31390625 1.87882812 -11.4453125 1.81640625 C-10.34960938 1.73261719 -9.25390625 1.64882813 -8.125 1.5625 C-7.03445312 1.48128906 -5.94390625 1.40007813 -4.8203125 1.31640625 C-2.05271029 1.16998297 -2.05271029 1.16998297 0 0 Z " fill="#5A779F" transform="translate(38,39)"/>
<path d="M0 0 C8.46279917 7.73741638 13.22125885 17.52215041 14.16015625 28.94921875 C14.64565964 40.70684422 10.38417747 50.4237338 4 60 C3.34 60 2.68 60 2 60 C1.67 58.68 1.34 57.36 1 56 C1.66 56 2.32 56 3 56 C3 54.68 3 53.36 3 52 C3.99 52 4.98 52 6 52 C6 51.01 6 50.02 6 49 C7.32 48.34 8.64 47.68 10 47 C9.01 45.35 8.02 43.7 7 42 C7.495 41.5875 7.99 41.175 8.5 40.75 C10.43386092 38.87797662 10.43386092 38.87797662 10 35 C10.66 35 11.32 35 12 35 C12 34.34 12 33.68 12 33 C10.68 33 9.36 33 8 33 C7.505 35.475 7.505 35.475 7 38 C7.66 38.33 8.32 38.66 9 39 C7.515 39.495 7.515 39.495 6 40 C5.67 40.66 5.34 41.32 5 42 C5.02320312 40.96101563 5.04640625 39.92203125 5.0703125 38.8515625 C5.19104158 30.98908095 5.06158401 23.65731203 3 16 C4.98 16 6.96 16 9 16 C8.505 15.236875 8.01 14.47375 7.5 13.6875 C6 11 6 11 6 8 C4.05925139 8.27617533 4.05925139 8.27617533 2 9 C1.01 10.485 1.01 10.485 0 12 C-1.98 9.36 -3.96 6.72 -6 4 C-4.68 3.67 -3.36 3.34 -2 3 C-1.67 4.65 -1.34 6.3 -1 8 C-0.01 7.34 0.98 6.68 2 6 C1.34 4.02 0.68 2.04 0 0 Z " fill="#F1F3F7" transform="translate(74,15)"/>
<path d="M0 0 C13.2 0 26.4 0 40 0 C40 1.98 40 3.96 40 6 C26.8 6 13.6 6 0 6 C0 4.02 0 2.04 0 0 Z " fill="#03306E" transform="translate(24,59)"/>
<path d="M0 0 C0 0.99 0 1.98 0 3 C-2.31 3 -4.62 3 -7 3 C-7 4.65 -7 6.3 -7 8 C-4.36 8 -1.72 8 1 8 C1.66 5.69 2.32 3.38 3 1 C4.32 1 5.64 1 7 1 C7.66 2.65 8.32 4.3 9 6 C9.33 4.02 9.66 2.04 10 0 C13.26954202 0.56371414 14.82575883 1.49962266 17 4 C17.33 2.68 17.66 1.36 18 0 C18.99 0 19.98 0 21 0 C21 3.63 21 7.26 21 11 C16.70574125 9.92643531 16.25259529 9.4915227 14 6 C13.67 7.65 13.34 9.3 13 11 C11.35 11 9.7 11 8 11 C7.67 10.01 7.34 9.02 7 8 C5.68 8 4.36 8 3 8 C2.67 8.99 2.34 9.98 2 11 C0.56344146 11.08131463 -0.8744483 11.13933559 -2.3125 11.1875 C-3.51326172 11.23970703 -3.51326172 11.23970703 -4.73828125 11.29296875 C-7 11 -7 11 -8.8046875 9.71484375 C-10 8 -10 8 -9.8125 4.375 C-9.544375 3.26125 -9.27625 2.1475 -9 1 C-6.04335481 -0.4783226 -3.25770263 -0.06032783 0 0 Z " fill="#002D69" transform="translate(221,69)"/>
<path d="M0 0 C3 1 3 1 4.6875 3.9375 C6 7 6 7 6 9 C4.02 9 2.04 9 0 9 C0.2165625 9.55945312 0.433125 10.11890625 0.65625 10.6953125 C3.25702254 18.18457417 3.30619227 25.12972454 3 33 C3.99 32.505 3.99 32.505 5 32 C4.67 31.67 4.34 31.34 4 31 C3.95907063 28.66702567 3.95758277 26.33294775 4 24 C4.33 24.66 4.66 25.32 5 26 C6.32 26 7.64 26 9 26 C9 26.66 9 27.32 9 28 C8.34 28 7.68 28 7 28 C7.165 28.598125 7.33 29.19625 7.5 29.8125 C8 32 8 32 8 35 C6.515 35.495 6.515 35.495 5 36 C5.66 36.33 6.32 36.66 7 37 C6.6875 39.375 6.6875 39.375 6 42 C5.01 42.66 4.02 43.32 3 44 C3.33 44.66 3.66 45.32 4 46 C2.35 45.34 0.7 44.68 -1 44 C-0.7215625 42.824375 -0.7215625 42.824375 -0.4375 41.625 C0.25962266 39.02910225 0.25962266 39.02910225 -1 37 C-0.66015625 35.08203125 -0.66015625 35.08203125 -0.0625 32.8125 C2.00751625 23.80436034 0.34025356 16.54613368 -3 8 C-4.52190897 5.68414908 -4.52190897 5.68414908 -6 4 C-5.67 3.34 -5.34 2.68 -5 2 C-4.34 2.66 -3.68 3.32 -3 4 C-2.01 2.68 -1.02 1.36 0 0 Z " fill="#758EAF" transform="translate(77,22)"/>
<path d="M0 0 C1.32 0.66 2.64 1.32 4 2 C4 2.66 4 3.32 4 4 C2.68 3.67 1.36 3.34 0 3 C0 3.66 0 4.32 0 5 C1.98 4.67 3.96 4.34 6 4 C5.67257812 5.27746094 5.34515625 6.55492187 5.0078125 7.87109375 C3.87111014 12.98625438 3.76972336 17.84320808 3.875 23.0625 C3.88853516 24.3609082 3.88853516 24.3609082 3.90234375 25.68554688 C3.92560277 27.79048779 3.96145992 29.89528342 4 32 C3.34 31.34 2.68 30.68 2 30 C2 29.01 2 28.02 2 27 C1.34 26.67 0.68 26.34 0 26 C0.66 24.35 1.32 22.7 2 21 C-0.31 21 -2.62 21 -5 21 C-5.49067456 13.51721294 -4.04453537 7.84714782 -1 1 C-0.67 0.67 -0.34 0.34 0 0 Z " fill="#EDF0F4" transform="translate(6,26)"/>
<path d="M0 0 C0.99 1.98 1.98 3.96 3 6 C1.68 6.33 0.36 6.66 -1 7 C1.31 7 3.62 7 6 7 C6.66 5.35 7.32 3.7 8 2 C9.32 2.33 10.64 2.66 12 3 C12 3.99 12 4.98 12 6 C12.33 5.01 12.66 4.02 13 3 C13.99 3.33 14.98 3.66 16 4 C16 7 16 7 15 10 C16.32 10.66 17.64 11.32 19 12 C18.31035156 11.855625 17.62070312 11.71125 16.91015625 11.5625 C7.57810929 9.7191327 -0.59973586 9.80631566 -10 11 C-9.34 10.34 -8.68 9.68 -8 9 C-8.474375 8.5875 -8.94875 8.175 -9.4375 7.75 C-11.16266518 5.817815 -11.56584875 4.51807725 -12 2 C-7.8803623 0.70756464 -4.33168317 -0.26252625 0 0 Z M-10 4 C-9.01 4.33 -8.02 4.66 -7 5 C-6.67 5.99 -6.34 6.98 -6 8 C-5.67 6.68 -5.34 5.36 -5 4 C-6.65 4 -8.3 4 -10 4 Z " fill="#758EAF" transform="translate(41,3)"/>
<path d="M0 0 C1.09719999 3.29159996 0.84775075 3.82666274 0 7 C-0.80868719 17.60624356 0.68814925 26.37380397 7 35 C7.33 35.99 7.66 36.98 8 38 C4.25 41 4.25 41 2 41 C1.67 39.35 1.34 37.7 1 36 C-0.485 36.495 -0.485 36.495 -2 37 C-2 36.34 -2 35.68 -2 35 C-2.66 34.34 -3.32 33.68 -4 33 C-3.34 32.34 -2.68 31.68 -2 31 C-2.99 31.33 -3.98 31.66 -5 32 C-5.33 31.01 -5.66 30.02 -6 29 C-5.01 28.67 -4.02 28.34 -3 28 C-3.33 27.34 -3.66 26.68 -4 26 C-4.99 25.67 -5.98 25.34 -7 25 C-6.01 24.67 -5.02 24.34 -4 24 C-4 23.34 -4 22.68 -4 22 C-5.32 22 -6.64 22 -8 22 C-8 20.68 -8 19.36 -8 18 C-6.68 17.67 -5.36 17.34 -4 17 C-3.34 18.32 -2.68 19.64 -2 21 C-2.02320313 19.98679687 -2.04640625 18.97359375 -2.0703125 17.9296875 C-2.0890841 16.57813242 -2.1072828 15.22656931 -2.125 13.875 C-2.14175781 13.20984375 -2.15851562 12.5446875 -2.17578125 11.859375 C-2.21847278 7.50483944 -1.59996217 4.04399886 0 0 Z " fill="#6580A6" transform="translate(11,33)"/>
<path d="M0 0 C8.28185622 -0.5869032 15.41416901 0.49974774 23 4 C24.84375 5.63671875 24.84375 5.63671875 26 7 C24.02 7.99 24.02 7.99 22 9 C22 7.68 22 6.36 22 5 C20.68 5.99 19.36 6.98 18 8 C18.66 8.33 19.32 8.66 20 9 C20 9.66 20 10.32 20 11 C20.61875 11.144375 21.2375 11.28875 21.875 11.4375 C24 12 24 12 26 13 C26 13.66 26 14.32 26 15 C23.03 14.505 23.03 14.505 20 14 C19.67 13.01 19.34 12.02 19 11 C16.98491642 10.26676204 16.98491642 10.26676204 15 10 C14.855625 9.030625 14.71125 8.06125 14.5625 7.0625 C14.32437659 4.13513227 14.32437659 4.13513227 13 3 C12.67 4.32 12.34 5.64 12 7 C11.01 6.34 10.02 5.68 9 5 C9.33 4.34 9.66 3.68 10 3 C9.34 2.67 8.68 2.34 8 2 C7.855625 2.804375 7.71125 3.60875 7.5625 4.4375 C7 7 7 7 6 8 C4.31391034 8.07205511 2.62499341 8.08386068 0.9375 8.0625 C0.01839844 8.05347656 -0.90070312 8.04445313 -1.84765625 8.03515625 C-2.55792969 8.02355469 -3.26820312 8.01195312 -4 8 C-1 6 -1 6 2 5 C1.34 3.35 0.68 1.7 0 0 Z " fill="#B1BFD2" transform="translate(41,3)"/>
<path d="M0 0 C2.875 -0.125 2.875 -0.125 6 0 C6.66 0.66 7.32 1.32 8 2 C8.66 1.34 9.32 0.68 10 0 C14.05261287 -0.34490322 15.54754176 -0.30163882 19 2 C19.3125 5.5 19.3125 5.5 19 9 C16.39813892 11.60186108 15.17645645 11.29810177 11.5625 11.3125 C10.11037109 11.33763672 10.11037109 11.33763672 8.62890625 11.36328125 C5.66252959 10.9533659 4.80613708 10.32042696 3 8 C2.67 8.99 2.34 9.98 2 11 C1.34 11 0.68 11 0 11 C0 7.37 0 3.74 0 0 Z M2 2 C2 2.66 2 3.32 2 4 C2.66 4 3.32 4 4 4 C4 3.34 4 2.68 4 2 C3.34 2 2.68 2 2 2 Z M12 2 C11.34 2.66 10.68 3.32 10 4 C10.3185177 6.10820797 10.3185177 6.10820797 11 8 C12.98 8.495 12.98 8.495 15 9 C15.66 7.68 16.32 6.36 17 5 C15.62514468 3.45833358 15.62514468 3.45833358 14 2 C13.34 2 12.68 2 12 2 Z M6 5 C7 7 7 7 7 7 Z " fill="#002C69" transform="translate(105,69)"/>
<path d="M0 0 C0.99 0.33 1.98 0.66 3 1 C4.6875 4.5625 4.6875 4.5625 6 8 C6.33 5.36 6.66 2.72 7 0 C9 1 11 2 13 3 C13.33 2.01 13.66 1.02 14 0 C14.99 0 15.98 0 17 0 C17 3.63 17 7.26 17 11 C16.01 11 15.02 11 14 11 C13.896875 10.360625 13.79375 9.72125 13.6875 9.0625 C13.460625 8.381875 13.23375 7.70125 13 7 C12.01 6.67 11.02 6.34 10 6 C9.67 7.65 9.34 9.3 9 11 C7.35 11 5.7 11 4 11 C3.67 10.01 3.34 9.02 3 8 C1.68 8 0.36 8 -1 8 C-1.33 8.99 -1.66 9.98 -2 11 C-2.66 11 -3.32 11 -4 11 C-3.39301257 6.87248551 -1.96189209 3.6678852 0 0 Z " fill="#002D6B" transform="translate(174,69)"/>
<path d="M0 0 C7.17278968 6.55797913 10.63586714 13.62035093 13 23 C12.01 23.33 11.02 23.66 10 24 C9.67 24.66 9.34 25.32 9 26 C7.68 26 6.36 26 5 26 C4.34 22.7 3.68 19.4 3 16 C4.98 16 6.96 16 9 16 C8.505 15.236875 8.01 14.47375 7.5 13.6875 C6 11 6 11 6 8 C4.05925139 8.27617533 4.05925139 8.27617533 2 9 C1.01 10.485 1.01 10.485 0 12 C-1.98 9.36 -3.96 6.72 -6 4 C-4.68 3.67 -3.36 3.34 -2 3 C-1.67 4.65 -1.34 6.3 -1 8 C-0.01 7.34 0.98 6.68 2 6 C1.34 4.02 0.68 2.04 0 0 Z " fill="#E2E7EE" transform="translate(74,15)"/>
<path d="M0 0 C0.66 1.65 1.32 3.3 2 5 C1.01 5 0.02 5 -1 5 C-0.67 5.99 -0.34 6.98 0 8 C1.65 6.35 3.3 4.7 5 3 C5.66 3.33 6.32 3.66 7 4 C6.54109375 4.42410156 6.0821875 4.84820313 5.609375 5.28515625 C1.47640381 9.23579048 -1.40161123 12.90715802 -4 18 C-4.66 17.34 -5.32 16.68 -6 16 C-6.99 16.33 -7.98 16.66 -9 17 C-9.66 16.67 -10.32 16.34 -11 16 C-11 15.34 -11 14.68 -11 14 C-9.68 14.33 -8.36 14.66 -7 15 C-7 14.34 -7 13.68 -7 13 C-8.32 12.34 -9.64 11.68 -11 11 C-5.07692308 -0 -5.07692308 -0 0 0 Z " fill="#7A92B2" transform="translate(17,15)"/>
<path d="M0 0 C0.33 0.99 0.66 1.98 1 3 C1.721875 2.7525 2.44375 2.505 3.1875 2.25 C6 2 6 2 8.75 3.5625 C11.40530619 6.4390817 11.57644673 8.18802059 12 12 C12.66 12.33 13.32 12.66 14 13 C12.02 13.99 12.02 13.99 10 15 C9.01 13.68 8.02 12.36 7 11 C7 11.66 7 12.32 7 13 C7 13.99 7 14.98 7 16 C5.35 14.02 3.7 12.04 2 10 C2.66 10 3.32 10 4 10 C4 9.34 4 8.68 4 8 C2.02 7.34 0.04 6.68 -2 6 C-2 5.34 -2 4.68 -2 4 C-2.99 3.67 -3.98 3.34 -5 3 C-2.25 0 -2.25 0 0 0 Z " fill="#6C87AA" transform="translate(63,8)"/>
<path d="M0 0 C3.96 0 7.92 0 12 0 C12 1.32 12 2.64 12 4 C13.65 4 15.3 4 17 4 C17 2.68 17 1.36 17 0 C17.66 0 18.32 0 19 0 C19 3.63 19 7.26 19 11 C18.34 11 17.68 11 17 11 C17 9.68 17 8.36 17 7 C15.35 7 13.7 7 12 7 C12 8.32 12 9.64 12 11 C11.34 11 10.68 11 10 11 C10 8.03 10 5.06 10 2 C8.68 2 7.36 2 6 2 C6 4.97 6 7.94 6 11 C5.34 11 4.68 11 4 11 C4 8.03 4 5.06 4 2 C2.68 2 1.36 2 0 2 C0 1.34 0 0.68 0 0 Z " fill="#002E6B" transform="translate(139,69)"/>
<path d="M0 0 C5.28 0 10.56 0 16 0 C14.515 2.475 14.515 2.475 13 5 C14.98 4.34 16.96 3.68 19 3 C19.33 3.99 19.66 4.98 20 6 C13.4 6 6.8 6 0 6 C0 4.02 0 2.04 0 0 Z " fill="#012F6C" transform="translate(24,59)"/>
<path d="M0 0 C3.36591866 1.44253657 5.51047079 3.33264727 8 6 C7.01 6 6.02 6 5 6 C5.66 6.33 6.32 6.66 7 7 C7 7.66 7 8.32 7 9 C7.5775 9.12375 8.155 9.2475 8.75 9.375 C11.02335767 10.00648824 12.9253529 10.88858191 15 12 C15 12.66 15 13.32 15 14 C14.34 14 13.68 14 13 14 C12.67 14.66 12.34 15.32 12 16 C11.67 15.34 11.34 14.68 11 14 C9.34385343 13.61781233 7.67542976 13.28604898 6 13 C5.34 12.67 4.68 12.34 4 12 C3.375 9.9375 3.375 9.9375 3 8 C2.01 8 1.02 8 0 8 C0 7.34 0 6.68 0 6 C-0.66 6.66 -1.32 7.32 -2 8 C-2.99 6.68 -3.98 5.36 -5 4 C-3.35 3.34 -1.7 2.68 0 2 C0 1.34 0 0.68 0 0 Z " fill="#6580A6" transform="translate(19,71)"/>
<path d="M0 0 C1.65 0 3.3 0 5 0 C5.66 2.31 6.32 4.62 7 7 C7.33 4.69 7.66 2.38 8 0 C8.66 0 9.32 0 10 0 C10 3.63 10 7.26 10 11 C8.35 11 6.7 11 5 11 C4.34 10.01 3.68 9.02 3 8 C2.67 8.99 2.34 9.98 2 11 C1.34 11 0.68 11 0 11 C0 7.37 0 3.74 0 0 Z M2 2 C2 2.66 2 3.32 2 4 C2.66 3.67 3.32 3.34 4 3 C3.34 2.67 2.68 2.34 2 2 Z " fill="#002D6B" transform="translate(200,69)"/>
<path d="M0 0 C2 1 4 2 6 3 C6.33 2.01 6.66 1.02 7 0 C7.99 0 8.98 0 10 0 C10 3.63 10 7.26 10 11 C9.34 11 8.68 11 8 11 C7.67 9.35 7.34 7.7 7 6 C5.68 6 4.36 6 3 6 C2.67 7.65 2.34 9.3 2 11 C1.34 11 0.68 11 0 11 C0 7.37 0 3.74 0 0 Z " fill="#002B6A" transform="translate(125,69)"/>
<path d="M0 0 C0.33 0.66 0.66 1.32 1 2 C1.66 2 2.32 2 3 2 C3 1.34 3 0.68 3 0 C4.98 0 6.96 0 9 0 C9 0.66 9 1.32 9 2 C10.32 2.33 11.64 2.66 13 3 C12.67 3.99 12.34 4.98 12 6 C11.67 6 11.34 6 11 6 C11 6.33 11 6.66 11 7 C8.625 7.1875 8.625 7.1875 6 7 C5.34 6.01 4.68 5.02 4 4 C2.07558585 3.49468134 2.07558585 3.49468134 -0.1328125 3.48828125 C-0.93847656 3.45283203 -1.74414062 3.41738281 -2.57421875 3.38085938 C-3.41597656 3.35830078 -4.25773437 3.33574219 -5.125 3.3125 C-5.97449219 3.27833984 -6.82398438 3.24417969 -7.69921875 3.20898438 C-9.79901105 3.12640827 -11.89948564 3.06153022 -14 3 C-14 2.67 -14 2.34 -14 2 C-13.15695313 1.93941406 -12.31390625 1.87882812 -11.4453125 1.81640625 C-10.34960938 1.73261719 -9.25390625 1.64882813 -8.125 1.5625 C-7.03445312 1.48128906 -5.94390625 1.40007813 -4.8203125 1.31640625 C-2.05271029 1.16998297 -2.05271029 1.16998297 0 0 Z " fill="#C8D2DF" transform="translate(38,39)"/>
<path d="M0 0 C0.928125 0.33 1.85625 0.66 2.8125 1 C5.92029291 2.14967004 5.92029291 2.14967004 9 2 C9 2.66 9 3.32 9 4 C9.99 4 10.98 4 12 4 C12.66 5.65 13.32 7.3 14 9 C14.763125 8.979375 15.52625 8.95875 16.3125 8.9375 C19 9 19 9 22 10 C22 10.99 22 11.98 22 13 C14.69115896 12.6822243 8.45405609 9.41550636 3.25 4.26953125 C2.10273182 2.89737243 1.03959519 1.45543326 0 0 Z " fill="#E7EBF1" transform="translate(12,75)"/>
<path d="M0 0 C0.66 0.33 1.32 0.66 2 1 C0.79460236 9.61769361 -2.21522961 15.82284442 -7 23 C-7.66 23 -8.32 23 -9 23 C-9.33 21.68 -9.66 20.36 -10 19 C-9.34 19 -8.68 19 -8 19 C-8 17.68 -8 16.36 -8 15 C-7.01 15 -6.02 15 -5 15 C-5 14.01 -5 13.02 -5 12 C-3.68 11.34 -2.36 10.68 -1 10 C-1.99 8.35 -2.98 6.7 -4 5 C-3.525625 4.54625 -3.05125 4.0925 -2.5625 3.625 C-0.90972192 2.06741796 -0.90972192 2.06741796 0 0 Z " fill="#DAE1EA" transform="translate(85,52)"/>
<path d="M0 0 C3 1 3 1 4.6875 3.9375 C6 7 6 7 6 9 C3.36 9.33 0.72 9.66 -2 10 C-3.32 8.02 -4.64 6.04 -6 4 C-5.67 3.34 -5.34 2.68 -5 2 C-4.34 2.66 -3.68 3.32 -3 4 C-2.01 2.68 -1.02 1.36 0 0 Z " fill="#8EA2BE" transform="translate(77,22)"/>
<path d="M0 0 C0.99 1.98 1.98 3.96 3 6 C1.02 6.33 -0.96 6.66 -3 7 C-3.66 5.68 -4.32 4.36 -5 3 C-5.66 3.66 -6.32 4.32 -7 5 C-7 5.99 -7 6.98 -7 8 C-7.99 8 -8.98 8 -10 8 C-10.66 6.02 -11.32 4.04 -12 2 C-7.8803623 0.70756464 -4.33168317 -0.26252625 0 0 Z " fill="#8CA0BC" transform="translate(41,3)"/>
<path d="M0 0 C2.31 0 4.62 0 7 0 C7 0.66 7 1.32 7 2 C5.68 2 4.36 2 3 2 C3 2.66 3 3.32 3 4 C4.32 4 5.64 4 7 4 C7 4.99 7 5.98 7 7 C5.68 7 4.36 7 3 7 C3 7.66 3 8.32 3 9 C4.32 9 5.64 9 7 9 C7 9.66 7 10.32 7 11 C4.69 11 2.38 11 0 11 C0 7.37 0 3.74 0 0 Z " fill="#002E6B" transform="translate(192,69)"/>
<path d="M0 0 C2.31 0 4.62 0 7 0 C7 0.66 7 1.32 7 2 C5.68 2 4.36 2 3 2 C3 2.66 3 3.32 3 4 C4.32 4 5.64 4 7 4 C7 4.99 7 5.98 7 7 C5.68 7 4.36 7 3 7 C3 7.66 3 8.32 3 9 C4.32 9 5.64 9 7 9 C7 9.66 7 10.32 7 11 C4.69 11 2.38 11 0 11 C0 7.37 0 3.74 0 0 Z " fill="#002E6C" transform="translate(159,69)"/>
<path d="M0 0 C5.53846154 0.61538462 5.53846154 0.61538462 7.875 2.5625 C8.431875 3.2740625 8.431875 3.2740625 9 4 C7.02 4.99 7.02 4.99 5 6 C5 4.68 5 3.36 5 2 C3.68 2.99 2.36 3.98 1 5 C1.66 5.33 2.32 5.66 3 6 C3 6.66 3 7.32 3 8 C3.928125 8.2165625 3.928125 8.2165625 4.875 8.4375 C7 9 7 9 9 10 C9 10.66 9 11.32 9 12 C6.03 11.505 6.03 11.505 3 11 C2.67 10.01 2.34 9.02 2 8 C-0.01508358 7.26676204 -0.01508358 7.26676204 -2 7 C-1.125 2.25 -1.125 2.25 0 0 Z " fill="#EAEEF3" transform="translate(58,6)"/>
<path d="M0 0 C2.64 0.66 5.28 1.32 8 2 C8 2.66 8 3.32 8 4 C12.62 4.66 17.24 5.32 22 6 C21.34 8.31 20.68 10.62 20 13 C19.34 12.34 18.68 11.68 18 11 C18 9.68 18 8.36 18 7 C16.02 7.99 16.02 7.99 14 9 C14 8.34 14 7.68 14 7 C13.34 7 12.68 7 12 7 C11.67 7.66 11.34 8.32 11 9 C10.34 8.34 9.68 7.68 9 7 C7.01612292 5.96838392 5.01723344 4.96476382 3 4 C3 3.34 3 2.68 3 2 C2.01 1.67 1.02 1.34 0 1 C0 0.67 0 0.34 0 0 Z " fill="#ECF0F4" transform="translate(23,76)"/>
<path d="M0 0 C1.49080078 0.02707031 1.49080078 0.02707031 3.01171875 0.0546875 C3.77097656 0.07789063 4.53023437 0.10109375 5.3125 0.125 C5.6425 1.775 5.9725 3.425 6.3125 5.125 C5.3225 5.125 4.3325 5.125 3.3125 5.125 C3.3125 4.465 3.3125 3.805 3.3125 3.125 C2.3225 3.785 1.3325 4.445 0.3125 5.125 C-0.6775 5.125 -1.6675 5.125 -2.6875 5.125 C-2.6875 4.465 -2.6875 3.805 -2.6875 3.125 C-3.6775 3.125 -4.6675 3.125 -5.6875 3.125 C-5.6875 3.785 -5.6875 4.445 -5.6875 5.125 C-6.3475 5.125 -7.0075 5.125 -7.6875 5.125 C-8.0175 4.135 -8.3475 3.145 -8.6875 2.125 C-5.26655758 -0.15562828 -4.00562778 -0.09425007 0 0 Z " fill="#5D7AA1" transform="translate(56.6875,58.875)"/>
<path d="M0 0 C0 -0.66 0 -1.32 0 -2 C2 -2 2 -2 3.5 -0.625 C3.995 -0.08875 4.49 0.4475 5 1 C5.66 1.66 6.32 2.32 7 3 C5.125 3.625 5.125 3.625 3 4 C2.34 3.34 1.68 2.68 1 2 C-5.11504862 1.12088096 -11.1071696 2.43972339 -17 4 C-17 3.01 -17 2.02 -17 1 C-10.5356829 -1.78324764 -6.69284805 -2.31207478 0 0 Z " fill="#93A6C0" transform="translate(41,47)"/>
<path d="M0 0 C1.65 0 3.3 0 5 0 C5.08090971 1.62418745 5.13914995 3.24951745 5.1875 4.875 C5.22230469 5.77992187 5.25710937 6.68484375 5.29296875 7.6171875 C5.19628906 8.40351562 5.09960938 9.18984375 5 10 C4.01 10.66 3.02 11.32 2 12 C0 10 0 10 -0.1953125 7.6171875 C-0.17210937 6.71226563 -0.14890625 5.80734375 -0.125 4.875 C-0.10695312 3.96492188 -0.08890625 3.05484375 -0.0703125 2.1171875 C-0.04710937 1.41851562 -0.02390625 0.71984375 0 0 Z " fill="#C02544" transform="translate(42,66)"/>
<path d="M0 0 C1.125 3.75 1.125 3.75 0 6 C0.28112064 8.00800456 0.61067967 10.01014051 1 12 C-0.98 11.34 -2.96 10.68 -5 10 C-6.65 11.65 -8.3 13.3 -10 15 C-10.66 14.67 -11.32 14.34 -12 14 C-11.44570312 13.39671875 -10.89140625 12.7934375 -10.3203125 12.171875 C-9.59585938 11.37265625 -8.87140625 10.5734375 -8.125 9.75 C-7.04605469 8.56664063 -7.04605469 8.56664063 -5.9453125 7.359375 C-4.22270078 5.27010296 -3.18068501 3.40391723 -2 1 C-1.34 0.67 -0.68 0.34 0 0 Z " fill="#8A9FBB" transform="translate(77,60)"/>
<path d="M0 0 C3.875 1.75 3.875 1.75 5 4 C4.01 4.33 3.02 4.66 2 5 C1.67 4.67 1.34 4.34 1 4 C0.67 4.99 0.34 5.98 0 7 C-1.32 6.34 -2.64 5.68 -4 5 C-4.33 6.32 -4.66 7.64 -5 9 C-5.99 9 -6.98 9 -8 9 C-8 7.35 -8 5.7 -8 4 C-7.236875 3.896875 -6.47375 3.79375 -5.6875 3.6875 C-2.82940576 2.95635961 -1.84257115 2.23048087 0 0 Z " fill="#55749D" transform="translate(63,78)"/>
<path d="M0 0 C3.3 0 6.6 0 10 0 C10.33 1.65 10.66 3.3 11 5 C10.01 5 9.02 5 8 5 C8 4.34 8 3.68 8 3 C7.01 3.66 6.02 4.32 5 5 C3.34450469 5.38499891 1.6777567 5.72793135 0 6 C0 4.02 0 2.04 0 0 Z " fill="#426492" transform="translate(24,59)"/>
<path d="M0 0 C3.78193805 0.52526917 6.3100737 1.21400491 9 4 C9.39764263 5.98821313 9.73775349 7.98944339 10 10 C10.66 10.33 11.32 10.66 12 11 C10.02 11.99 10.02 11.99 8 13 C6.57055055 10.64561267 5.91338739 9.51967567 6.375 6.75 C6.58125 6.1725 6.7875 5.595 7 5 C4.69 4.67 2.38 4.34 0 4 C0 2.68 0 1.36 0 0 Z " fill="#D2DAE5" transform="translate(65,10)"/>
<path d="M0 0 C0.99 0.66 1.98 1.32 3 2 C1.02 2.99 1.02 2.99 -1 4 C-0.67 5.32 -0.34 6.64 0 8 C-1.32 8 -2.64 8 -4 8 C-7.66783981 8.72632589 -7.66783981 8.72632589 -11 10 C-11.33 10.99 -11.66 11.98 -12 13 C-13.65 13 -15.3 13 -17 13 C-17 12.34 -17 11.68 -17 11 C-16.19175781 10.62488281 -15.38351563 10.24976562 -14.55078125 9.86328125 C-6.45537394 6.01988005 -6.45537394 6.01988005 0 0 Z " fill="#F2F4F8" transform="translate(72,69)"/>
<path d="M0 0 C2.375 -0.125 2.375 -0.125 5 0 C5.66 0.66 6.32 1.32 7 2 C6.625 4.625 6.625 4.625 6 7 C4.02 7 2.04 7 0 7 C0 4.69 0 2.38 0 0 Z " fill="#9CAEC6" transform="translate(53,24)"/>
<path d="M0 0 C2 0 4 0 6 0 C6.33 1.98 6.66 3.96 7 6 C1.58461538 7.23076923 1.58461538 7.23076923 -1.375 6.0625 C-1.91125 5.711875 -2.4475 5.36125 -3 5 C-2.34 5 -1.68 5 -1 5 C-0.67 3.35 -0.34 1.7 0 0 Z " fill="#7E96B5" transform="translate(35,83)"/>
<path d="M0 0 C1.66666667 1.66666667 3.33333333 3.33333333 5 5 C5.8971875 5.8353125 5.8971875 5.8353125 6.8125 6.6875 C8 8 8 8 8 10 C4.53846154 13 4.53846154 13 2 13 C1.93941406 12.39671875 1.87882813 11.7934375 1.81640625 11.171875 C1.69072266 9.97304687 1.69072266 9.97304687 1.5625 8.75 C1.48128906 7.96109375 1.40007813 7.1721875 1.31640625 6.359375 C1.02365007 4.17635361 0.57935581 2.1226818 0 0 Z " fill="#91A5BF" transform="translate(11,61)"/>
<path d="M0 0 C1.32 0.33 2.64 0.66 4 1 C3.8125 2.8125 3.8125 2.8125 3 5 C-1.17857143 8 -1.17857143 8 -4 8 C-4.66 6.68 -5.32 5.36 -6 4 C-5.01 3.67 -4.02 3.34 -3 3 C-2.34 3.33 -1.68 3.66 -1 4 C-0.67 2.68 -0.34 1.36 0 0 Z " fill="#6782A7" transform="translate(24,9)"/>
<path d="M0 0 C2.97 0 5.94 0 9 0 C9 0.33 9 0.66 9 1 C7.35 1.33 5.7 1.66 4 2 C4 3.32 4 4.64 4 6 C4.66 6 5.32 6 6 6 C6 5.01 6 4.02 6 3 C6.66 3 7.32 3 8 3 C7.34 4.65 6.68 6.3 6 8 C2.7 8 -0.6 8 -4 8 C-1 6 -1 6 2 5 C1.34 3.35 0.68 1.7 0 0 Z " fill="#F2F4F7" transform="translate(41,3)"/>
<path d="M0 0 C1.98 0 3.96 0 6 0 C6 0.66 6 1.32 6 2 C4.68 2 3.36 2 2 2 C2 2.66 2 3.32 2 4 C3.32 4 4.64 4 6 4 C6 4.66 6 5.32 6 6 C4.68 6 3.36 6 2 6 C2 7.65 2 9.3 2 11 C1.34 11 0.68 11 0 11 C0 7.37 0 3.74 0 0 Z " fill="#002D6B" transform="translate(98,69)"/>
<path d="M0 0 C3.36591866 1.44253657 5.51047079 3.33264727 8 6 C6.72125 5.95875 5.4425 5.9175 4.125 5.875 C1.98128508 5.75787127 1.98128508 5.75787127 0 6 C-0.66 6.66 -1.32 7.32 -2 8 C-2.99 6.68 -3.98 5.36 -5 4 C-3.35 3.34 -1.7 2.68 0 2 C0 1.34 0 0.68 0 0 Z " fill="#6A85A9" transform="translate(19,71)"/>
<path d="M0 0 C1.32 0.33 2.64 0.66 4 1 C4 2.32 4 3.64 4 5 C7.96 5.33 11.92 5.66 16 6 C16 6.33 16 6.66 16 7 C6.595 7.99 6.595 7.99 -3 9 C-1.68 7.68 -0.36 6.36 1 5 C1.7872678 2.8618034 1.7872678 2.8618034 2 1 C1.34 0.67 0.68 0.34 0 0 Z " fill="#6681A7" transform="translate(34,5)"/>
<path d="M0 0 C1.65 0 3.3 0 5 0 C5 2.64 5 5.28 5 8 C2.525 7.01 2.525 7.01 0 6 C0 4.02 0 2.04 0 0 Z " fill="#C63956" transform="translate(29,66)"/>
<path d="M0 0 C1.258125 -0.020625 2.51625 -0.04125 3.8125 -0.0625 C4.52019531 -0.07410156 5.22789063 -0.08570313 5.95703125 -0.09765625 C8 0 8 0 11 1 C11 1.99 11 2.98 11 4 C4.375 4.125 4.375 4.125 1 3 C0.67 2.01 0.34 1.02 0 0 Z " fill="#A1B2C9" transform="translate(54,47)"/>
<path d="M0 0 C1.32 0 2.64 0 4 0 C4 2.97 4 5.94 4 9 C2.68 8.67 1.36 8.34 0 8 C0 5.36 0 2.72 0 0 Z " fill="#BB1334" transform="translate(36,66)"/>
<path d="M0 0 C0.33 1.65 0.66 3.3 1 5 C0.01 5 -0.98 5 -2 5 C-2 4.34 -2 3.68 -2 3 C-2.99 3.66 -3.98 4.32 -5 5 C-5.99 5 -6.98 5 -8 5 C-7.625 3.0625 -7.625 3.0625 -7 1 C-4.53721199 -0.231394 -2.7204945 -0.07159196 0 0 Z " fill="#58769E" transform="translate(45,59)"/>
<path d="M0 0 C0.33 0.66 0.66 1.32 1 2 C2.32 2 3.64 2 5 2 C5 2.66 5 3.32 5 4 C4.34 4 3.68 4 3 4 C3.165 4.598125 3.33 5.19625 3.5 5.8125 C4 8 4 8 4 11 C2.35 10.67 0.7 10.34 -1 10 C-0.34 9.34 0.32 8.68 1 8 C0.67 7.67 0.34 7.34 0 7 C-0.04092937 4.66702567 -0.04241723 2.33294775 0 0 Z " fill="#4D6D98" transform="translate(81,46)"/>
<path d="M0 0 C0.33 0.66 0.66 1.32 1 2 C1.66 2 2.32 2 3 2 C3 1.34 3 0.68 3 0 C4.65 0 6.3 0 8 0 C7.67 0.99 7.34 1.98 7 3 C-0.12971149 4.25818438 -6.81949816 3.71148265 -14 3 C-14 2.67 -14 2.34 -14 2 C-13.15695313 1.93941406 -12.31390625 1.87882812 -11.4453125 1.81640625 C-10.34960938 1.73261719 -9.25390625 1.64882813 -8.125 1.5625 C-7.03445312 1.48128906 -5.94390625 1.40007813 -4.8203125 1.31640625 C-2.05271029 1.16998297 -2.05271029 1.16998297 0 0 Z " fill="#627EA4" transform="translate(38,39)"/>
<path d="M0 0 C1.32 0 2.64 0 4 0 C4 2.64 4 5.28 4 8 C2.68 8 1.36 8 0 8 C0 5.36 0 2.72 0 0 Z " fill="#BA0E31" transform="translate(49,66)"/>
<path d="M0 0 C0.33 0.99 0.66 1.98 1 3 C1.99 3.33 2.98 3.66 4 4 C3.67 4.33 3.34 4.66 3 5 C3.66 5.66 4.32 6.32 5 7 C1 7 1 7 -2 6 C-2 5.34 -2 4.68 -2 4 C-2.99 3.67 -3.98 3.34 -5 3 C-2.25 0 -2.25 0 0 0 Z " fill="#466794" transform="translate(63,8)"/>
<path d="M0 0 C0.66 0 1.32 0 2 0 C0.85569823 3.87302138 -0.23320098 7.00263439 -3 10 C-3.66 10 -4.32 10 -5 10 C-5.33 8.68 -5.66 7.36 -6 6 C-5.34 6 -4.68 6 -4 6 C-4 4.68 -4 3.36 -4 2 C-2.68 2.33 -1.36 2.66 0 3 C0 2.01 0 1.02 0 0 Z " fill="#E5EAF0" transform="translate(81,65)"/>
<path d="M0 0 C2.31 0 4.62 0 7 0 C6.67 1.32 6.34 2.64 6 4 C5.195625 4.12375 4.39125 4.2475 3.5625 4.375 C2.2940625 4.684375 2.2940625 4.684375 1 5 C0.67 5.66 0.34 6.32 0 7 C0 4.69 0 2.38 0 0 Z " fill="#B0BED1" transform="translate(1,47)"/>
<path d="M0 0 C1.32 0 2.64 0 4 0 C4.66 2.97 5.32 5.94 6 9 C4.35 9 2.7 9 1 9 C1.33 8.34 1.66 7.68 2 7 C2.66 7 3.32 7 4 7 C4 6.34 4 5.68 4 5 C2.68 5 1.36 5 0 5 C0 3.33333333 0 1.66666667 0 0 Z " fill="#3A5E8D" transform="translate(3,50)"/>
<path d="M0 0 C0 1.65 0 3.3 0 5 C1.32 4.67 2.64 4.34 4 4 C4 4.66 4 5.32 4 6 C0.67465243 7.10844919 -1.62182575 6.84454356 -5 6 C-4.34 5.01 -3.68 4.02 -3 3 C-3.66 2.67 -4.32 2.34 -5 2 C-5.33 2.66 -5.66 3.32 -6 4 C-6 3.01 -6 2.02 -6 1 C-1.125 0 -1.125 0 0 0 Z " fill="#8097B6" transform="translate(55,82)"/>
<path d="M0 0 C1.32 0 2.64 0 4 0 C4 2.31 4 4.62 4 7 C2.68 7 1.36 7 0 7 C0 4.69 0 2.38 0 0 Z " fill="#BB1335" transform="translate(55,66)"/>
<path d="M0 0 C0.99 0 1.98 0 3 0 C3.66 1.98 4.32 3.96 5 6 C2.69 6 0.38 6 -2 6 C-1.34 4.02 -0.68 2.04 0 0 Z " fill="#D7DEE8" transform="translate(44,25)"/>
<path d="M0 0 C1.98 0 3.96 0 6 0 C6.33 1.65 6.66 3.3 7 5 C6.01 5 5.02 5 4 5 C4 4.34 4 3.68 4 3 C3.01 3.33 2.02 3.66 1 4 C0.67 2.68 0.34 1.36 0 0 Z " fill="#3E608F" transform="translate(56,59)"/>
<path d="M0 0 C0.99 0 1.98 0 3 0 C3.66 1.65 4.32 3.3 5 5 C4.01 5 3.02 5 2 5 C2.33 5.66 2.66 6.32 3 7 C0.525 6.01 0.525 6.01 -2 5 C-1.125 1.125 -1.125 1.125 0 0 Z " fill="#708AAC" transform="translate(14,15)"/>
<path d="M0 0 C0.99 0.66 1.98 1.32 3 2 C3 2.66 3 3.32 3 4 C0.35261084 5.4606285 -0.89448334 6 -4 6 C-4.33 4.35 -4.66 2.7 -5 1 C-3.35 1.99 -1.7 2.98 0 4 C0 2.68 0 1.36 0 0 Z " fill="#ECF0F4" transform="translate(63,81)"/>
<path d="M0 0 C0.99 0 1.98 0 3 0 C3.33 1.32 3.66 2.64 4 4 C2.35 4.33 0.7 4.66 -1 5 C-1 1 -1 1 0 0 Z " fill="#6883A7" transform="translate(72,71)"/>
<path d="M0 0 C4.455 0.99 4.455 0.99 9 2 C6 5 6 5 2.8125 5.1875 C1.4203125 5.0946875 1.4203125 5.0946875 0 5 C0 3.33333333 0 1.66666667 0 0 Z " fill="#7B93B3" transform="translate(40,50)"/>
<path d="M0 0 C1.875 0.3125 1.875 0.3125 4 1 C4.66 1.99 5.32 2.98 6 4 C6.99 4.33 7.98 4.66 9 5 C9 5.66 9 6.32 9 7 C7.35 7 5.7 7 4 7 C3.566875 5.824375 3.566875 5.824375 3.125 4.625 C2.15087746 1.90328368 2.15087746 1.90328368 0 0 Z " fill="#5F7CA2" transform="translate(46,43)"/>
<path d="M0 0 C1.98 0.495 1.98 0.495 4 1 C3.67 2.32 3.34 3.64 3 5 C1.68 4.67 0.36 4.34 -1 4 C-0.67 2.68 -0.34 1.36 0 0 Z " fill="#5E7BA2" transform="translate(24,9)"/>
<path d="M0 0 C1.5 1.3125 1.5 1.3125 3 3 C3 3.99 3 4.98 3 6 C1.02 6.99 1.02 6.99 -1 8 C-1 7.34 -1 6.68 -1 6 C-1.66 5.34 -2.32 4.68 -3 4 C-2.34 3.67 -1.68 3.34 -1 3 C-0.67 2.01 -0.34 1.02 0 0 Z " fill="#476895" transform="translate(10,62)"/>
<path d="M0 0 C0.33 0.66 0.66 1.32 1 2 C1.99 2.33 2.98 2.66 4 3 C3.67 3.66 3.34 4.32 3 5 C1.33333333 5 -0.33333333 5 -2 5 C-2.33 5.66 -2.66 6.32 -3 7 C-3 3.48283697 -2.17554415 2.62878252 0 0 Z " fill="#D4DCE6" transform="translate(11,18)"/>
<path d="M0 0 C1.65 0.33 3.3 0.66 5 1 C3.515 2.485 3.515 2.485 2 4 C2.33 4.66 2.66 5.32 3 6 C0.525 5.01 0.525 5.01 -2 4 C-1.34 2.68 -0.68 1.36 0 0 Z " fill="#395C8C" transform="translate(78,62)"/>
<path d="M0 0 C1.65 0 3.3 0 5 0 C5 2 5 4 5 6 C3.68 5.67 2.36 5.34 1 5 C1 4.34 1 3.68 1 3 C0.67 2.01 0.34 1.02 0 0 Z " fill="#DFE5EC" transform="translate(36,25)"/>
<path d="M0 0 C1.1446875 0.2475 1.1446875 0.2475 2.3125 0.5 C5.03596236 1.09145396 5.03596236 1.09145396 8 1 C5.03 3.475 5.03 3.475 2 6 C1.855625 5.38125 1.71125 4.7625 1.5625 4.125 C1.06847775 1.96741678 1.06847775 1.96741678 0 0 Z " fill="#F7F9FA" transform="translate(14,18)"/>
<path d="M0 0 C0.66 0 1.32 0 2 0 C2 0.99 2 1.98 2 3 C2.66 3.33 3.32 3.66 4 4 C2.02 4.99 2.02 4.99 0 6 C-0.66 4.68 -1.32 3.36 -2 2 C-1.34 1.34 -0.68 0.68 0 0 Z " fill="#365A8B" transform="translate(73,17)"/>
<path d="M0 0 C2.64 0.66 5.28 1.32 8 2 C7.67 2.99 7.34 3.98 7 5 C5.68 4.67 4.36 4.34 3 4 C3 3.34 3 2.68 3 2 C2.01 1.67 1.02 1.34 0 1 C0 0.67 0 0.34 0 0 Z " fill="#C3CEDC" transform="translate(23,76)"/>
<path d="M0 0 C0.99 0 1.98 0 3 0 C3 1.98 3 3.96 3 6 C2.01 6 1.02 6 0 6 C0 4.02 0 2.04 0 0 Z " fill="#BA0F31" transform="translate(30,67)"/>
<path d="M0 0 C0.99 0.33 1.98 0.66 3 1 C3 1.66 3 2.32 3 3 C3.66 3.33 4.32 3.66 5 4 C1.25 5.125 1.25 5.125 -1 4 C-0.67 2.68 -0.34 1.36 0 0 Z " fill="#5F7CA3" transform="translate(37,49)"/>
<path d="M0 0 C3 1 3 1 4.1875 3.0625 C4.455625 3.701875 4.72375 4.34125 5 5 C4 6 4 6 0.4375 6.0625 C-0.696875 6.041875 -1.83125 6.02125 -3 6 C-1.68 5.34 -0.36 4.68 1 4 C0.67 2.68 0.34 1.36 0 0 Z " fill="#53729C" transform="translate(46,46)"/>
<path d="M0 0 C2.16874252 0.50603992 3.99967627 0.99983813 6 2 C6 2.66 6 3.32 6 4 C3.03 3.505 3.03 3.505 0 3 C0 2.01 0 1.02 0 0 Z " fill="#B8C4D6" transform="translate(61,14)"/>
<path d="M0 0 C2.475 0.99 2.475 0.99 5 2 C5 2.66 5 3.32 5 4 C4.34 4 3.68 4 3 4 C2.67 4.66 2.34 5.32 2 6 C1.67 5.34 1.34 4.68 1 4 C0.01 3.67 -0.98 3.34 -2 3 C-1.34 3 -0.68 3 0 3 C0 2.01 0 1.02 0 0 Z " fill="#325788" transform="translate(29,81)"/>
<path d="M0 0 C2.31 0.33 4.62 0.66 7 1 C7 1.66 7 2.32 7 3 C6.34 3 5.68 3 5 3 C4.67 3.66 4.34 4.32 4 5 C3.34 4.34 2.68 3.68 2 3 C1.34 2.67 0.68 2.34 0 2 C0 1.34 0 0.68 0 0 Z " fill="#E2E7EE" transform="translate(30,80)"/>
<path d="M0 0 C0.99 0.495 0.99 0.495 2 1 C1.67 1.66 1.34 2.32 1 3 C2.32 3 3.64 3 5 3 C5 3.66 5 4.32 5 5 C3.35 5.33 1.7 5.66 0 6 C0 4.02 0 2.04 0 0 Z " fill="#F7F9FA" transform="translate(2,52)"/>
</svg>
